<?xml version="1.0" encoding="UTF-8" standalone="no"?><svg xmlns="http://www.w3.org/2000/svg" xmlns:xlink="http://www.w3.org/1999/xlink" contentStyleType="text/css" height="2842px" preserveAspectRatio="none" style="width:451px;height:2842px;background:#FFFFFF;" version="1.1" viewBox="0 0 451 2842" width="451px" zoomAndPan="magnify"><defs/><g><!--MD5=[f462d6d8d882aca61780c800787fbd0c]
cluster Autenticación--><g id="cluster_Autenticación"><path d="M191,6 L300,6 A3.75,3.75 0 0 1 302.5,8.5 L309.5,28.2969 L355,28.2969 A2.5,2.5 0 0 1 357.5,30.7969 L357.5,153.5 A2.5,2.5 0 0 1 355,156 L191,156 A2.5,2.5 0 0 1 188.5,153.5 L188.5,8.5 A2.5,2.5 0 0 1 191,6 " fill="none" style="stroke:#000000;stroke-width:1.5;"/><line style="stroke:#000000;stroke-width:1.5;" x1="188.5" x2="309.5" y1="28.2969" y2="28.2969"/><text fill="#000000" font-family="sans-serif" font-size="14" font-weight="bold" lengthAdjust="spacing" textLength="108" x="192.5" y="20.9951">Autenticación</text></g><!--MD5=[0bdd0de83f50f545f2bb46f1ace237d2]
cluster Historias--><g id="cluster_Historias"><path d="M145,180 L215,180 A3.75,3.75 0 0 1 217.5,182.5 L224.5,202.2969 L401,202.2969 A2.5,2.5 0 0 1 403.5,204.7969 L403.5,811.5 A2.5,2.5 0 0 1 401,814 L145,814 A2.5,2.5 0 0 1 142.5,811.5 L142.5,182.5 A2.5,2.5 0 0 1 145,180 " fill="none" style="stroke:#000000;stroke-width:1.5;"/><line style="stroke:#000000;stroke-width:1.5;" x1="142.5" x2="224.5" y1="202.2969" y2="202.2969"/><text fill="#000000" font-family="sans-serif" font-size="14" font-weight="bold" lengthAdjust="spacing" textLength="69" x="146.5" y="194.9951">Historias</text></g><!--MD5=[fa165c1effdae5ec5bf7b5c7866392f0]
cluster Personajes--><g id="cluster_Personajes"><path d="M104.5,838 L193.5,838 A3.75,3.75 0 0 1 196,840.5 L203,860.2969 L441.5,860.2969 A2.5,2.5 0 0 1 444,862.7969 L444,1183.5 A2.5,2.5 0 0 1 441.5,1186 L104.5,1186 A2.5,2.5 0 0 1 102,1183.5 L102,840.5 A2.5,2.5 0 0 1 104.5,838 " fill="none" style="stroke:#000000;stroke-width:1.5;"/><line style="stroke:#000000;stroke-width:1.5;" x1="102" x2="203" y1="860.2969" y2="860.2969"/><text fill="#000000" font-family="sans-serif" font-size="14" font-weight="bold" lengthAdjust="spacing" textLength="88" x="106" y="852.9951">Personajes</text></g><!--MD5=[6fd905065a579ad69875059ce608e59e]
cluster Universos--><g id="cluster_Universos"><path d="M109.5,1210 L189.5,1210 A3.75,3.75 0 0 1 192,1212.5 L199,1232.2969 L436.5,1232.2969 A2.5,2.5 0 0 1 439,1234.7969 L439,1547.5 A2.5,2.5 0 0 1 436.5,1550 L109.5,1550 A2.5,2.5 0 0 1 107,1547.5 L107,1212.5 A2.5,2.5 0 0 1 109.5,1210 " fill="none" style="stroke:#000000;stroke-width:1.5;"/><line style="stroke:#000000;stroke-width:1.5;" x1="107" x2="199" y1="1232.2969" y2="1232.2969"/><text fill="#000000" font-family="sans-serif" font-size="14" font-weight="bold" lengthAdjust="spacing" textLength="79" x="111" y="1224.9951">Universos</text></g><!--MD5=[61de2c6aba92c1ca3b84e355ccf92842]
cluster Capítulos--><g id="cluster_Capítulos"><path d="M188,1574 L262,1574 A3.75,3.75 0 0 1 264.5,1576.5 L271.5,1596.2969 L358,1596.2969 A2.5,2.5 0 0 1 360.5,1598.7969 L360.5,1656.5 A2.5,2.5 0 0 1 358,1659 L188,1659 A2.5,2.5 0 0 1 185.5,1656.5 L185.5,1576.5 A2.5,2.5 0 0 1 188,1574 " fill="none" style="stroke:#000000;stroke-width:1.5;"/><line style="stroke:#000000;stroke-width:1.5;" x1="185.5" x2="271.5" y1="1596.2969" y2="1596.2969"/><text fill="#000000" font-family="sans-serif" font-size="14" font-weight="bold" lengthAdjust="spacing" textLength="73" x="189.5" y="1588.9951">Capítulos</text></g><!--MD5=[ed97bbf9779a37cf621301218414cea6]
cluster Escenas--><g id="cluster_Escenas"><path d="M150.5,1683 L216.5,1683 A3.75,3.75 0 0 1 219,1685.5 L226,1705.2969 L395.5,1705.2969 A2.5,2.5 0 0 1 398,1707.7969 L398,2068.5 A2.5,2.5 0 0 1 395.5,2071 L150.5,2071 A2.5,2.5 0 0 1 148,2068.5 L148,1685.5 A2.5,2.5 0 0 1 150.5,1683 " fill="none" style="stroke:#000000;stroke-width:1.5;"/><line style="stroke:#000000;stroke-width:1.5;" x1="148" x2="226" y1="1705.2969" y2="1705.2969"/><text fill="#000000" font-family="sans-serif" font-size="14" font-weight="bold" lengthAdjust="spacing" textLength="65" x="152" y="1697.9951">Escenas</text></g><!--MD5=[35c8a9ec8447c1f8b37db941c32701d8]
cluster Mapa Interactivo--><g id="cluster_Mapa Interactivo"><path d="M181,2095 L312,2095 A3.75,3.75 0 0 1 314.5,2097.5 L321.5,2117.2969 L365,2117.2969 A2.5,2.5 0 0 1 367.5,2119.7969 L367.5,2317.5 A2.5,2.5 0 0 1 365,2320 L181,2320 A2.5,2.5 0 0 1 178.5,2317.5 L178.5,2097.5 A2.5,2.5 0 0 1 181,2095 " fill="none" style="stroke:#000000;stroke-width:1.5;"/><line style="stroke:#000000;stroke-width:1.5;" x1="178.5" x2="321.5" y1="2117.2969" y2="2117.2969"/><text fill="#000000" font-family="sans-serif" font-size="14" font-weight="bold" lengthAdjust="spacing" textLength="130" x="182.5" y="2109.9951">Mapa Interactivo</text></g><!--MD5=[f520a6eac123ef3abc0d609b0109d0e8]
cluster Generador de Nombres--><g id="cluster_Generador de Nombres"><path d="M135.5,2344 L322.5,2344 A3.75,3.75 0 0 1 325,2346.5 L332,2366.2969 L410.5,2366.2969 A2.5,2.5 0 0 1 413,2368.7969 L413,2517.5 A2.5,2.5 0 0 1 410.5,2520 L135.5,2520 A2.5,2.5 0 0 1 133,2517.5 L133,2346.5 A2.5,2.5 0 0 1 135.5,2344 " fill="none" style="stroke:#000000;stroke-width:1.5;"/><line style="stroke:#000000;stroke-width:1.5;" x1="133" x2="332" y1="2366.2969" y2="2366.2969"/><text fill="#000000" font-family="sans-serif" font-size="14" font-weight="bold" lengthAdjust="spacing" textLength="186" x="137" y="2358.9951">Generador de Nombres</text></g><!--MD5=[8e48dd915a3a967d0d7e508ca26e34d6]
cluster Generador de Ideas--><g id="cluster_Generador de Ideas"><path d="M165.5,2544 L323.5,2544 A3.75,3.75 0 0 1 326,2546.5 L333,2566.2969 L380.5,2566.2969 A2.5,2.5 0 0 1 383,2568.7969 L383,2634.5 A2.5,2.5 0 0 1 380.5,2637 L165.5,2637 A2.5,2.5 0 0 1 163,2634.5 L163,2546.5 A2.5,2.5 0 0 1 165.5,2544 " fill="none" style="stroke:#000000;stroke-width:1.5;"/><line style="stroke:#000000;stroke-width:1.5;" x1="163" x2="333" y1="2566.2969" y2="2566.2969"/><text fill="#000000" font-family="sans-serif" font-size="14" font-weight="bold" lengthAdjust="spacing" textLength="157" x="167" y="2558.9951">Generador de Ideas</text></g><!--MD5=[d0ad5cac97b34f67ca36288f1d312f5e]
cluster Chat Narrativo--><g id="cluster_Chat Narrativo"><path d="M151,2661 L265,2661 A3.75,3.75 0 0 1 267.5,2663.5 L274.5,2683.2969 L395,2683.2969 A2.5,2.5 0 0 1 397.5,2685.7969 L397.5,2832.5 A2.5,2.5 0 0 1 395,2835 L151,2835 A2.5,2.5 0 0 1 148.5,2832.5 L148.5,2663.5 A2.5,2.5 0 0 1 151,2661 " fill="none" style="stroke:#000000;stroke-width:1.5;"/><line style="stroke:#000000;stroke-width:1.5;" x1="148.5" x2="274.5" y1="2683.2969" y2="2683.2969"/><text fill="#000000" font-family="sans-serif" font-size="14" font-weight="bold" lengthAdjust="spacing" textLength="113" x="152.5" y="2675.9951">Chat Narrativo</text></g><g id="elem_Registrarse"><ellipse cx="273.0766" cy="56.9153" fill="#F1F1F1" rx="65.0766" ry="15.4153" style="stroke:#181818;stroke-width:0.5;"/><text fill="#000000" font-family="sans-serif" font-size="14" lengthAdjust="spacing" textLength="79" x="230.5766" y="60.6629">Registrarse</text></g><g id="elem_Iniciar sesión"><ellipse cx="273.1011" cy="124.1202" fill="#F1F1F1" rx="68.6011" ry="16.1202" style="stroke:#181818;stroke-width:0.5;"/><text fill="#000000" font-family="sans-serif" font-size="14" lengthAdjust="spacing" textLength="89" x="225.6011" y="127.8678">Iniciar sesión</text></g><g id="elem_Crear historia"><ellipse cx="272.8288" cy="231.7658" fill="#F1F1F1" rx="69.3288" ry="16.2658" style="stroke:#181818;stroke-width:0.5;"/><text fill="#000000" font-family="sans-serif" font-size="14" lengthAdjust="spacing" textLength="91" x="224.3288" y="235.5133">Crear historia</text></g><g id="elem_Editar título de historia"><ellipse cx="273.0118" cy="304.9024" fill="#F1F1F1" rx="95.0118" ry="21.4024" style="stroke:#181818;stroke-width:0.5;"/><text fill="#000000" font-family="sans-serif" font-size="14" lengthAdjust="spacing" textLength="153" x="196.5118" y="307.749">Editar título de historia</text></g><g id="elem_Agregar capítulo"><ellipse cx="272.8536" cy="379.8707" fill="#F1F1F1" rx="77.3536" ry="17.8707" style="stroke:#181818;stroke-width:0.5;"/><text fill="#000000" font-family="sans-serif" font-size="14" lengthAdjust="spacing" textLength="112" x="214.1333" y="383.5454">Agregar capítulo</text></g><g id="elem_Editar contenido del capítulo"><ellipse cx="273.1957" cy="458.8391" fill="#F1F1F1" rx="114.6957" ry="25.3391" style="stroke:#181818;stroke-width:0.5;"/><text fill="#000000" font-family="sans-serif" font-size="14" lengthAdjust="spacing" textLength="196" x="175.1957" y="461.6858">Editar contenido del capítulo</text></g><g id="elem_Eliminar capítulo"><ellipse cx="272.9563" cy="537.7913" fill="#F1F1F1" rx="76.9563" ry="17.7913" style="stroke:#181818;stroke-width:0.5;"/><text fill="#000000" font-family="sans-serif" font-size="14" lengthAdjust="spacing" textLength="111" x="214.5675" y="541.5101">Eliminar capítulo</text></g><g id="elem_Guardar cambios"><ellipse cx="272.8735" cy="609.7747" fill="#F1F1F1" rx="79.3735" ry="18.2747" style="stroke:#181818;stroke-width:0.5;"/><text fill="#000000" font-family="sans-serif" font-size="14" lengthAdjust="spacing" textLength="117" x="212.4676" y="613.2248">Guardar cambios</text></g><g id="elem_Exportar historia como PDF"><ellipse cx="273.0557" cy="687.9111" fill="#F1F1F1" rx="110.0557" ry="24.4111" style="stroke:#181818;stroke-width:0.5;"/><text fill="#000000" font-family="sans-serif" font-size="14" lengthAdjust="spacing" textLength="186" x="180.0557" y="690.7578">Exportar historia como PDF</text></g><g id="elem_Ver elementos relacionados"><ellipse cx="272.8004" cy="773.0601" fill="#F1F1F1" rx="113.3004" ry="25.0601" style="stroke:#181818;stroke-width:0.5;"/><text fill="#000000" font-family="sans-serif" font-size="14" lengthAdjust="spacing" textLength="193" x="176.3004" y="775.9068">Ver elementos relacionados</text></g><g id="elem_Crear personaje"><ellipse cx="273.0612" cy="891.2122" fill="#F1F1F1" rx="76.5612" ry="17.7122" style="stroke:#181818;stroke-width:0.5;"/><text fill="#000000" font-family="sans-serif" font-size="14" lengthAdjust="spacing" textLength="110" x="215.0612" y="894.9598">Crear personaje</text></g><g id="elem_Editar personaje"><ellipse cx="272.8536" cy="961.8707" fill="#F1F1F1" rx="77.3536" ry="17.8707" style="stroke:#181818;stroke-width:0.5;"/><text fill="#000000" font-family="sans-serif" font-size="14" lengthAdjust="spacing" textLength="112" x="214.1333" y="965.5454">Editar personaje</text></g><g id="elem_Ver historia relacionada desde personaje"><ellipse cx="273.0598" cy="1048.912" fill="#F1F1F1" rx="155.0598" ry="33.412" style="stroke:#181818;stroke-width:0.5;"/><text fill="#000000" font-family="sans-serif" font-size="14" lengthAdjust="spacing" textLength="281" x="132.5598" y="1051.7586">Ver historia relacionada desde personaje</text></g><g id="elem_Exportar personaje como PDF"><ellipse cx="272.8973" cy="1144.1795" fill="#F1F1F1" rx="118.8973" ry="26.1795" style="stroke:#181818;stroke-width:0.5;"/><text fill="#000000" font-family="sans-serif" font-size="14" lengthAdjust="spacing" textLength="205" x="170.3973" y="1147.0261">Exportar personaje como PDF</text></g><g id="elem_Crear universo"><ellipse cx="273.1868" cy="1261.9374" fill="#F1F1F1" rx="72.6868" ry="16.9374" style="stroke:#181818;stroke-width:0.5;"/><text fill="#000000" font-family="sans-serif" font-size="14" lengthAdjust="spacing" textLength="100" x="220.1868" y="1265.6849">Crear universo</text></g><g id="elem_Editar universo"><ellipse cx="272.9504" cy="1331.0901" fill="#F1F1F1" rx="73.4504" ry="17.0901" style="stroke:#181818;stroke-width:0.5;"/><text fill="#000000" font-family="sans-serif" font-size="14" lengthAdjust="spacing" textLength="102" x="218.9504" y="1334.8376">Editar universo</text></g><g id="elem_Ver historia relacionada desde universo"><ellipse cx="273.2487" cy="1415.9497" fill="#F1F1F1" rx="150.2487" ry="32.4497" style="stroke:#181818;stroke-width:0.5;"/><text fill="#000000" font-family="sans-serif" font-size="14" lengthAdjust="spacing" textLength="271" x="137.7487" y="1418.7964">Ver historia relacionada desde universo</text></g><g id="elem_Exportar universo como PDF"><ellipse cx="273.2303" cy="1509.2461" fill="#F1F1F1" rx="114.2303" ry="25.2461" style="stroke:#181818;stroke-width:0.5;"/><text fill="#000000" font-family="sans-serif" font-size="14" lengthAdjust="spacing" textLength="195" x="175.7303" y="1512.0927">Exportar universo como PDF</text></g><g id="elem_Editar capítulo"><ellipse cx="273.0529" cy="1626.2106" fill="#F1F1F1" rx="71.5529" ry="16.7106" style="stroke:#181818;stroke-width:0.5;"/><text fill="#000000" font-family="sans-serif" font-size="14" lengthAdjust="spacing" textLength="97" x="221.5529" y="1629.9581">Editar capítulo</text></g><g id="elem_Crear escena"><ellipse cx="273.1952" cy="1734.839" fill="#F1F1F1" rx="69.6952" ry="16.339" style="stroke:#181818;stroke-width:0.5;"/><text fill="#000000" font-family="sans-serif" font-size="14" lengthAdjust="spacing" textLength="92" x="224.1952" y="1738.5866">Crear escena</text></g><g id="elem_Editar escena"><ellipse cx="272.9333" cy="1802.9867" fill="#F1F1F1" rx="70.4333" ry="16.4867" style="stroke:#181818;stroke-width:0.5;"/><text fill="#000000" font-family="sans-serif" font-size="14" lengthAdjust="spacing" textLength="94" x="222.9333" y="1806.7342">Editar escena</text></g><g id="elem_Eliminar escena"><ellipse cx="272.7754" cy="1872.0551" fill="#F1F1F1" rx="75.7754" ry="17.5551" style="stroke:#181818;stroke-width:0.5;"/><text fill="#000000" font-family="sans-serif" font-size="14" lengthAdjust="spacing" textLength="108" x="215.7754" y="1875.8026">Eliminar escena</text></g><g id="elem_Asociar escena a capítulo"><ellipse cx="272.9911" cy="1947.8982" fill="#F1F1F1" rx="104.9911" ry="23.3982" style="stroke:#181818;stroke-width:0.5;"/><text fill="#000000" font-family="sans-serif" font-size="14" lengthAdjust="spacing" textLength="175" x="185.4911" y="1950.7449">Asociar escena a capítulo</text></g><g id="elem_Ver capítulo desde escena"><ellipse cx="273.1316" cy="2031.2263" fill="#F1F1F1" rx="109.1316" ry="24.2263" style="stroke:#181818;stroke-width:0.5;"/><text fill="#000000" font-family="sans-serif" font-size="14" lengthAdjust="spacing" textLength="184" x="181.1316" y="2034.073">Ver capítulo desde escena</text></g><g id="elem_Generar mapa"><ellipse cx="272.9293" cy="2146.7859" fill="#F1F1F1" rx="71.9293" ry="16.7859" style="stroke:#181818;stroke-width:0.5;"/><text fill="#000000" font-family="sans-serif" font-size="14" lengthAdjust="spacing" textLength="98" x="220.9293" y="2150.5334">Generar mapa</text></g><g id="elem_Filtrar elementos"><ellipse cx="273.0591" cy="2217.1118" fill="#F1F1F1" rx="78.5591" ry="18.1118" style="stroke:#181818;stroke-width:0.5;"/><text fill="#000000" font-family="sans-serif" font-size="14" lengthAdjust="spacing" textLength="115" x="213.3328" y="2220.6525">Filtrar elementos</text></g><g id="elem_Exportar mapa"><ellipse cx="272.8073" cy="2286.8615" fill="#F1F1F1" rx="72.3073" ry="16.8615" style="stroke:#181818;stroke-width:0.5;"/><text fill="#000000" font-family="sans-serif" font-size="14" lengthAdjust="spacing" textLength="99" x="220.3073" y="2290.609">Exportar mapa</text></g><g id="elem_Generar nombre"><ellipse cx="273.1551" cy="2397.031" fill="#F1F1F1" rx="78.1551" ry="18.031" style="stroke:#181818;stroke-width:0.5;"/><text fill="#000000" font-family="sans-serif" font-size="14" lengthAdjust="spacing" textLength="114" x="213.7659" y="2400.6166">Generar nombre</text></g><g id="elem_Crear personaje desde nombre"><ellipse cx="273.0617" cy="2477.2123" fill="#F1F1F1" rx="124.0617" ry="27.2123" style="stroke:#181818;stroke-width:0.5;"/><text fill="#000000" font-family="sans-serif" font-size="14" lengthAdjust="spacing" textLength="216" x="165.0617" y="2480.059">Crear personaje desde nombre</text></g><g id="elem_Generar idea narrativa"><ellipse cx="273.1163" cy="2600.2233" fill="#F1F1F1" rx="94.1163" ry="21.2233" style="stroke:#181818;stroke-width:0.5;"/><text fill="#000000" font-family="sans-serif" font-size="14" lengthAdjust="spacing" textLength="151" x="197.6163" y="2603.0699">Generar idea narrativa</text></g><g id="elem_Enviar mensaje a IA"><ellipse cx="273.228" cy="2716.0456" fill="#F1F1F1" rx="85.728" ry="19.5456" style="stroke:#181818;stroke-width:0.5;"/><text fill="#000000" font-family="sans-serif" font-size="14" lengthAdjust="spacing" textLength="132" x="207.228" y="2718.8923">Enviar mensaje a IA</text></g><g id="elem_Recibir respuesta narrativa"><ellipse cx="273.1701" cy="2795.134" fill="#F1F1F1" rx="108.6701" ry="24.134" style="stroke:#181818;stroke-width:0.5;"/><text fill="#000000" font-family="sans-serif" font-size="14" lengthAdjust="spacing" textLength="183" x="181.6701" y="2797.9807">Recibir respuesta narrativa</text></g><!--MD5=[128f0757cf0ea77f14e95a88885fd9f7]
entity Usuario--><g id="elem_Usuario"><ellipse cx="32" cy="1344.5" fill="#F1F1F1" rx="8" ry="8" style="stroke:#181818;stroke-width:0.5;"/><path d="M32,1352.5 L32,1379.5 M19,1360.5 L45,1360.5 M32,1379.5 L19,1394.5 M32,1379.5 L45,1394.5 " fill="none" style="stroke:#181818;stroke-width:0.5;"/><text fill="#000000" font-family="sans-serif" font-size="14" lengthAdjust="spacing" textLength="52" x="6" y="1408.9951">Usuario</text></g><!--MD5=[a4ea431c7dca80eef85a1e697cb3dc2e]
link Usuario to Registrarse--><g id="link_Usuario_Registrarse"><path d="M33.49,1335.77 C36.33,1127.59 52,138.13 94,90 C121.69,58.27 169.15,50.72 208.11,50.72 " fill="none" id="Usuario-to-Registrarse" style="stroke:#181818;stroke-width:1.0;"/><polygon fill="#181818" points="213.3,50.77,204.3346,46.693,208.3002,50.7271,204.266,54.6927,213.3,50.77" style="stroke:#181818;stroke-width:1.0;"/></g><!--MD5=[ba767b78cf9b1f3584caaab1f812d059]
link Usuario to Iniciar sesión--><g id="link_Usuario_Iniciar sesión"><path d="M33.84,1335.97 C38.35,1139.49 60.59,246.6 94,199 C120.18,161.7 168.73,142.86 208.51,133.4 " fill="none" id="Usuario-to-Iniciar sesión" style="stroke:#181818;stroke-width:1.0;"/><polygon fill="#181818" points="213.82,132.18,204.1494,130.3145,208.949,133.3085,205.955,138.108,213.82,132.18" style="stroke:#181818;stroke-width:1.0;"/></g><!--MD5=[3f0d88f265c8d8d0a8d26457438e9a2f]
link Usuario to Crear historia--><g id="link_Usuario_Crear historia"><path d="M33.79,1335.84 C37.91,1145.59 58.03,307.13 94,266 C120.46,235.74 164.85,227.22 202.67,226.27 " fill="none" id="Usuario-to-Crear historia" style="stroke:#181818;stroke-width:1.0;"/><polygon fill="#181818" points="207.73,226.19,198.6738,222.319,202.7305,226.2614,198.7881,230.3182,207.73,226.19" style="stroke:#181818;stroke-width:1.0;"/></g><!--MD5=[1cdcf73d92b6331a5d43527b9b3d1650]
link Usuario to Editar título de historia--><g id="link_Usuario_Editar título de historia"><path d="M32.59,1335.72 C31.03,1158.2 28.54,420.6 94,344 C113.62,321.04 143.37,309.78 172.96,304.69 " fill="none" id="Usuario-to-Editar título de historia" style="stroke:#181818;stroke-width:1.0;"/><polygon fill="#181818" points="178.09,303.86,168.5654,301.3537,173.1546,304.6611,169.8472,309.2503,178.09,303.86" style="stroke:#181818;stroke-width:1.0;"/></g><!--MD5=[85e28dd5d28659b3fc40b46149c90cc6]
link Usuario to Agregar capítulo--><g id="link_Usuario_Agregar capítulo"><path d="M32.74,1335.85 C31.96,1166.29 32.68,486.28 94,416 C118.2,388.26 157.35,378.34 192.78,375.75 " fill="none" id="Usuario-to-Agregar capítulo" style="stroke:#181818;stroke-width:1.0;"/><polygon fill="#181818" points="197.98,375.42,188.7462,371.9941,192.9899,375.7346,189.2495,379.9783,197.98,375.42" style="stroke:#181818;stroke-width:1.0;"/></g><!--MD5=[0ee0d7211cb88dd36eba28469eca5135]
link Usuario to Editar contenido del capítulo--><g id="link_Usuario_Editar contenido del capítulo"><path d="M33.06,1335.89 C33.67,1176.21 39.56,566.39 94,502 C109.71,483.41 131.95,472.1 155.39,465.37 " fill="none" id="Usuario-to-Editar contenido del capítulo" style="stroke:#181818;stroke-width:1.0;"/><polygon fill="#181818" points="160.41,464,150.6743,462.5114,155.5865,465.3168,152.7812,470.229,160.41,464" style="stroke:#181818;stroke-width:1.0;"/></g><!--MD5=[6cbd46669d414425de4a781738ab7ad9]
link Usuario to Eliminar capítulo--><g id="link_Usuario_Eliminar capítulo"><path d="M33.26,1335.95 C34.62,1184.72 43.1,631.61 94,574 C118.37,546.41 157.54,536.5 192.94,533.88 " fill="none" id="Usuario-to-Eliminar capítulo" style="stroke:#181818;stroke-width:1.0;"/><polygon fill="#181818" points="198.13,533.55,188.8968,530.1225,193.1398,533.8637,189.3987,538.1067,198.13,533.55" style="stroke:#181818;stroke-width:1.0;"/></g><!--MD5=[e2cc350a811e3dda622635e6b98754d2]
link Usuario to Guardar cambios--><g id="link_Usuario_Guardar cambios"><path d="M33.57,1335.54 C36.04,1192.63 47.88,697.81 94,646 C117.88,619.18 155.74,609.1 190.42,606.17 " fill="none" id="Usuario-to-Guardar cambios" style="stroke:#181818;stroke-width:1.0;"/><polygon fill="#181818" points="195.52,605.79,186.2477,602.4697,190.5338,606.1615,186.842,610.4476,195.52,605.79" style="stroke:#181818;stroke-width:1.0;"/></g><!--MD5=[57b76dd481ca741de53e1766babd5c55]
link Usuario to Exportar historia como PDF--><g id="link_Usuario_Exportar historia como PDF"><path d="M34.07,1335.55 C38.09,1203.75 54.11,775.78 94,730 C110.72,710.81 134.42,699.52 159.09,693.07 " fill="none" id="Usuario-to-Exportar historia como PDF" style="stroke:#181818;stroke-width:1.0;"/><polygon fill="#181818" points="164.04,691.84,154.3433,690.1154,159.1859,693.0392,156.2621,697.8819,164.04,691.84" style="stroke:#181818;stroke-width:1.0;"/></g><!--MD5=[aaa27f696b598346404e87c88bb0b6a3]
link Usuario to Ver elementos relacionados--><g id="link_Usuario_Ver elementos relacionados"><path d="M32.84,1335.87 C33.09,1229.74 38.84,933.67 94,857 C116.63,825.54 154.15,805.47 188.92,792.87 " fill="none" id="Usuario-to-Ver elementos relacionados" style="stroke:#181818;stroke-width:1.0;"/><polygon fill="#181818" points="194.03,791.06,184.2107,790.2974,189.3174,792.7308,186.884,797.8375,194.03,791.06" style="stroke:#181818;stroke-width:1.0;"/></g><!--MD5=[d78a992347305d9a71a6a5a668724920]
link Usuario to Crear personaje--><g id="link_Usuario_Crear personaje"><path d="M32.73,1335.78 C32.85,1238.45 38.6,984.75 94,926 C119.12,899.35 158.15,889.69 193.26,887.09 " fill="none" id="Usuario-to-Crear personaje" style="stroke:#181818;stroke-width:1.0;"/><polygon fill="#181818" points="198.41,886.75,189.1664,883.3505,193.4208,887.0788,189.6925,891.3332,198.41,886.75" style="stroke:#181818;stroke-width:1.0;"/></g><!--MD5=[cdcda8bfabd07c0311d70c0700b12cd4]
link Usuario to Editar personaje--><g id="link_Usuario_Editar personaje"><path d="M33.87,1335.7 C36.62,1249.87 47.98,1045.84 94,998 C119,972.01 157.19,962.06 191.8,959 " fill="none" id="Usuario-to-Editar personaje" style="stroke:#181818;stroke-width:1.0;"/><polygon fill="#181818" points="196.88,958.6,187.5889,955.3326,191.896,958.9999,188.2287,963.3069,196.88,958.6" style="stroke:#181818;stroke-width:1.0;"/></g><!--MD5=[0a8d72f15cabf1d157ab45dc4447fd66]
link Usuario to Ver historia relacionada desde personaje--><g id="link_Usuario_Ver historia relacionada desde personaje"><path d="M36.72,1335.74 C43.98,1268.66 62.22,1133.75 94,1100 C106.39,1086.84 121.92,1077.01 138.62,1069.67 " fill="none" id="Usuario-to-Ver historia relacionada desde personaje" style="stroke:#181818;stroke-width:1.0;"/><polygon fill="#181818" points="143.35,1067.66,133.5028,1067.4769,138.744,1069.6054,136.6155,1074.8465,143.35,1067.66" style="stroke:#181818;stroke-width:1.0;"/></g><!--MD5=[85a98b9b1aceb0ea625a3ca342ef37ad]
link Usuario to Exportar personaje como PDF--><g id="link_Usuario_Exportar personaje como PDF"><path d="M41,1335.89 C49.43,1303.93 65.54,1258.84 94,1229 C121.48,1200.18 160.73,1180.01 195.37,1166.57 " fill="none" id="Usuario-to-Exportar personaje como PDF" style="stroke:#181818;stroke-width:1.0;"/><polygon fill="#181818" points="200.45,1164.64,190.615,1164.1173,195.7796,1166.4253,193.4715,1171.5899,200.45,1164.64" style="stroke:#181818;stroke-width:1.0;"/></g><!--MD5=[0686b651e284515bcf69d9a46ad5a65d]
link Usuario to Crear universo--><g id="link_Usuario_Crear universo"><path d="M54.7,1335.63 C64.82,1321.06 78.15,1305.67 94,1296 C124.21,1277.57 162.23,1268.77 195.38,1264.7 " fill="none" id="Usuario-to-Crear universo" style="stroke:#181818;stroke-width:1.0;"/><polygon fill="#181818" points="200.65,1264.08,191.2438,1261.1605,195.6843,1264.665,192.1798,1269.1056,200.65,1264.08" style="stroke:#181818;stroke-width:1.0;"/></g><!--MD5=[98a19c7f894d049b4a0f682de5614b7a]
link Usuario to Editar universo--><g id="link_Usuario_Editar universo"><path d="M58.13,1369.48 C93.7,1363.08 159.9,1351.17 209.27,1342.29 " fill="none" id="Usuario-to-Editar universo" style="stroke:#181818;stroke-width:1.0;"/><polygon fill="#181818" points="214.29,1341.38,204.7232,1339.0398,209.3693,1342.2669,206.1422,1346.9129,214.29,1341.38" style="stroke:#181818;stroke-width:1.0;"/></g><!--MD5=[5f288abc662a084768ffdc060b12be7f]
link Usuario to Ver historia relacionada desde universo--><g id="link_Usuario_Ver historia relacionada desde universo"><path d="M58.13,1378.42 C80.69,1382.38 115.57,1388.51 150.66,1394.68 " fill="none" id="Usuario-to-Ver historia relacionada desde universo" style="stroke:#181818;stroke-width:1.0;"/><polygon fill="#181818" points="155.84,1395.59,147.6767,1390.08,150.9168,1394.717,146.2798,1397.9571,155.84,1395.59" style="stroke:#181818;stroke-width:1.0;"/></g><!--MD5=[71c57d6359bcab977d4795a173ffa3a4]
link Usuario to Exportar universo como PDF--><g id="link_Usuario_Exportar universo como PDF"><path d="M49.9,1412.2 C60.1,1431.06 74.85,1452.58 94,1466 C114.99,1480.71 140.42,1490.42 165.4,1496.82 " fill="none" id="Usuario-to-Exportar universo como PDF" style="stroke:#181818;stroke-width:1.0;"/><polygon fill="#181818" points="170.39,1498.05,162.6121,1492.0081,165.5359,1496.8508,160.6933,1499.7746,170.39,1498.05" style="stroke:#181818;stroke-width:1.0;"/></g><!--MD5=[27e002e5280de6433d17103d63a9b4e8]
link Usuario to Editar capítulo--><g id="link_Usuario_Editar capítulo"><path d="M37.18,1412.26 C43.34,1451.38 58.27,1511.68 94,1550 C125.47,1583.75 174.4,1603.16 213,1613.91 " fill="none" id="Usuario-to-Editar capítulo" style="stroke:#181818;stroke-width:1.0;"/><polygon fill="#181818" points="218.14,1615.3,210.5065,1609.0767,213.3155,1613.9868,208.4054,1616.7959,218.14,1615.3" style="stroke:#181818;stroke-width:1.0;"/></g><!--MD5=[d9ff88a97f2fa3f8416eadd7bf15de0c]
link Usuario to Crear escena--><g id="link_Usuario_Crear escena"><path d="M36.8,1412.04 C44.34,1480.68 63.2,1621.6 94,1659 C123.24,1694.49 172.09,1713.76 211.22,1724 " fill="none" id="Usuario-to-Crear escena" style="stroke:#181818;stroke-width:1.0;"/><polygon fill="#181818" points="216.43,1725.33,208.7068,1719.2183,211.5869,1724.0871,206.7182,1726.9672,216.43,1725.33" style="stroke:#181818;stroke-width:1.0;"/></g><!--MD5=[cbb6aea00262c8d7bc63c35361d5727d]
link Usuario to Editar escena--><g id="link_Usuario_Editar escena"><path d="M33.49,1412.25 C35.46,1501.25 45.27,1718.51 94,1769 C120.97,1796.94 163.31,1805.84 199.93,1807.57 " fill="none" id="Usuario-to-Editar escena" style="stroke:#181818;stroke-width:1.0;"/><polygon fill="#181818" points="205.29,1807.77,196.4447,1803.4387,200.2934,1807.5844,196.1477,1811.4332,205.29,1807.77" style="stroke:#181818;stroke-width:1.0;"/></g><!--MD5=[87a1bd76e0c5325d8fe1fca77b8aa7f3]
link Usuario to Eliminar escena--><g id="link_Usuario_Eliminar escena"><path d="M32.54,1412.03 C32.14,1511.5 36.64,1775.89 94,1837 C119.27,1863.92 158.73,1873.52 194.07,1876.03 " fill="none" id="Usuario-to-Eliminar escena" style="stroke:#181818;stroke-width:1.0;"/><polygon fill="#181818" points="199.26,1876.34,190.5165,1871.8067,194.269,1876.0397,190.036,1879.7922,199.26,1876.34" style="stroke:#181818;stroke-width:1.0;"/></g><!--MD5=[300d3bff53ed68afcd14df44fd1c9f07]
link Usuario to Asociar escena a capítulo--><g id="link_Usuario_Asociar escena a capítulo"><path d="M34.85,1412.15 C40.81,1528.01 61.07,1870.15 94,1907 C111.9,1927.04 137.45,1938.3 163.63,1944.41 " fill="none" id="Usuario-to-Asociar escena a capítulo" style="stroke:#181818;stroke-width:1.0;"/><polygon fill="#181818" points="168.52,1945.49,160.5857,1939.655,163.6361,1944.419,158.8721,1947.4693,168.52,1945.49" style="stroke:#181818;stroke-width:1.0;"/></g><!--MD5=[95832d46527adabd4e982c385710bca9]
link Usuario to Ver capítulo desde escena--><g id="link_Usuario_Ver capítulo desde escena"><path d="M34.24,1412.04 C38.73,1539.43 55.93,1945.5 94,1989 C110.96,2008.38 135.03,2019.69 160.02,2026.11 " fill="none" id="Usuario-to-Ver capítulo desde escena" style="stroke:#181818;stroke-width:1.0;"/><polygon fill="#181818" points="165.02,2027.33,157.2254,2021.3097,160.1626,2026.1442,155.3281,2029.0815,165.02,2027.33" style="stroke:#181818;stroke-width:1.0;"/></g><!--MD5=[d221aab2e652ec2a8d952fda10fbe7cc]
link Usuario to Generar mapa--><g id="link_Usuario_Generar mapa"><path d="M34.08,1412.45 C38.27,1550.72 55.19,2017.46 94,2071 C120.33,2107.32 167.61,2126.43 206.82,2136.4 " fill="none" id="Usuario-to-Generar mapa" style="stroke:#181818;stroke-width:1.0;"/><polygon fill="#181818" points="212.06,2137.69,204.2821,2131.6481,207.2059,2136.4908,202.3633,2139.4146,212.06,2137.69" style="stroke:#181818;stroke-width:1.0;"/></g><!--MD5=[12606d32648fc45b649529b40c95f56d]
link Usuario to Filtrar elementos--><g id="link_Usuario_Filtrar elementos"><path d="M33.23,1412.12 C34.5,1564.3 42.65,2122.84 94,2181 C118.07,2208.26 156.58,2218.26 191.63,2221.03 " fill="none" id="Usuario-to-Filtrar elementos" style="stroke:#181818;stroke-width:1.0;"/><polygon fill="#181818" points="196.77,2221.38,188.0788,2216.7472,191.7828,2221.0227,187.5072,2224.7267,196.77,2221.38" style="stroke:#181818;stroke-width:1.0;"/></g><!--MD5=[8045e918e74c483bdd3d54ac1a38bab1]
link Usuario to Exportar mapa--><g id="link_Usuario_Exportar mapa"><path d="M32.97,1412.17 C33.21,1572.77 37.8,2188.31 94,2252 C119.62,2281.04 161.69,2290.25 198.5,2291.99 " fill="none" id="Usuario-to-Exportar mapa" style="stroke:#181818;stroke-width:1.0;"/><polygon fill="#181818" points="203.89,2292.2,195.0447,2287.8687,198.8934,2292.0144,194.7477,2295.8632,203.89,2292.2" style="stroke:#181818;stroke-width:1.0;"/></g><!--MD5=[952c71ed1bc2b6b209e468c1e5c76272]
link Usuario to Generar nombre--><g id="link_Usuario_Generar nombre"><path d="M33.14,1412.23 C34.06,1579.86 41.06,2244.81 94,2320 C119.23,2355.83 164.82,2375.13 203.54,2385.45 " fill="none" id="Usuario-to-Generar nombre" style="stroke:#181818;stroke-width:1.0;"/><polygon fill="#181818" points="208.71,2386.79,201.0038,2380.657,203.8704,2385.5337,198.9937,2388.4003,208.71,2386.79" style="stroke:#181818;stroke-width:1.0;"/></g><!--MD5=[8b97ff8e900aed7794d01f40bd943587]
link Usuario to Crear personaje desde nombre--><g id="link_Usuario_Crear personaje desde nombre"><path d="M33.95,1412.22 C38.68,1597.17 60.88,2391.9 94,2432 C108.25,2449.25 128.06,2460.42 149.32,2467.56 " fill="none" id="Usuario-to-Crear personaje desde nombre" style="stroke:#181818;stroke-width:1.0;"/><polygon fill="#181818" points="154.17,2469.11,146.8073,2462.5686,149.4056,2467.5934,144.3807,2470.1917,154.17,2469.11" style="stroke:#181818;stroke-width:1.0;"/></g><!--MD5=[4e4bc6d84ea5d002e45be7e9ba0a0dab]
link Usuario to Generar idea narrativa--><g id="link_Usuario_Generar idea narrativa"><path d="M32.7,1412.13 C31.55,1600.54 30.19,2426.89 94,2520 C117.28,2553.97 158.58,2573.71 195.54,2585.09 " fill="none" id="Usuario-to-Generar idea narrativa" style="stroke:#181818;stroke-width:1.0;"/><polygon fill="#181818" points="200.49,2586.57,193.0277,2580.1423,195.7028,2585.1267,190.7185,2587.8018,200.49,2586.57" style="stroke:#181818;stroke-width:1.0;"/></g><!--MD5=[6c97fb16578de9b62ff07302b5ce94e0]
link Usuario to Enviar mensaje a IA--><g id="link_Usuario_Enviar mensaje a IA"><path d="M33.72,1412.12 C37.74,1617.55 58.52,2585.22 94,2637 C118.05,2672.1 161.47,2691.78 199.41,2702.72 " fill="none" id="Usuario-to-Enviar mensaje a IA" style="stroke:#181818;stroke-width:1.0;"/><polygon fill="#181818" points="204.48,2704.14,196.9029,2697.8481,199.6676,2702.7834,194.7323,2705.548,204.48,2704.14" style="stroke:#181818;stroke-width:1.0;"/></g><!--MD5=[ef495fca337e05f247a0bc32e6b786fb]
link Usuario to Recibir respuesta narrativa--><g id="link_Usuario_Recibir respuesta narrativa"><path d="M33.4,1412.14 C35.84,1629.11 50.06,2699.94 94,2753 C110.61,2773.06 134.85,2784.58 160.13,2790.97 " fill="none" id="Usuario-to-Recibir respuesta narrativa" style="stroke:#181818;stroke-width:1.0;"/><polygon fill="#181818" points="165.2,2792.18,157.3681,2786.2083,160.3354,2791.0245,155.5192,2793.9918,165.2,2792.18" style="stroke:#181818;stroke-width:1.0;"/></g><!--MD5=[493322db931a8cfc6d6588ec186fc6ee]
@startuml
left to right direction

actor Usuario

package "Autenticación" {
  Usuario - -> (Registrarse)
  Usuario - -> (Iniciar sesión)
}

package "Historias" {
  Usuario - -> (Crear historia)
  Usuario - -> (Editar título de historia)
  Usuario - -> (Agregar capítulo)
  Usuario - -> (Editar contenido del capítulo)
  Usuario - -> (Eliminar capítulo)
  Usuario - -> (Guardar cambios)
  Usuario - -> (Exportar historia como PDF)
  Usuario - -> (Ver elementos relacionados)
}

package "Personajes" {
  Usuario - -> (Crear personaje)
  Usuario - -> (Editar personaje)
  Usuario - -> (Ver historia relacionada desde personaje)
  Usuario - -> (Exportar personaje como PDF)
}

package "Universos" {
  Usuario - -> (Crear universo)
  Usuario - -> (Editar universo)
  Usuario - -> (Ver historia relacionada desde universo)
  Usuario - -> (Exportar universo como PDF)
}

package "Capítulos" {
  Usuario - -> (Editar capítulo)
}

package "Escenas" {
  Usuario - -> (Crear escena)
  Usuario - -> (Editar escena)
  Usuario - -> (Eliminar escena)
  Usuario - -> (Asociar escena a capítulo)
  Usuario - -> (Ver capítulo desde escena)
}

package "Mapa Interactivo" {
  Usuario - -> (Generar mapa)
  Usuario - -> (Filtrar elementos)
  Usuario - -> (Exportar mapa)
}

package "Generador de Nombres" {
  Usuario - -> (Generar nombre)
  Usuario - -> (Crear personaje desde nombre)
}

package "Generador de Ideas" {
  Usuario - -> (Generar idea narrativa)
}

package "Chat Narrativo" {
  Usuario - -> (Enviar mensaje a IA)
  Usuario - -> (Recibir respuesta narrativa)
}
@enduml

PlantUML version 1.2022.7(Mon Aug 22 17:01:30 UTC 2022)
(GPL source distribution)
Java Runtime: OpenJDK Runtime Environment
JVM: OpenJDK 64-Bit Server VM
Default Encoding: UTF-8
Language: en
Country: null
--></g></svg>