<svg xmlns="http://www.w3.org/2000/svg" xmlns:xlink="http://www.w3.org/1999/xlink" contentStyleType="text/css" data-diagram-type="DESCRIPTION" height="2619px" preserveAspectRatio="none" style="width:843px;height:2619px;background:#FFFFFF;" version="1.1" viewBox="0 0 843 2619" width="843px" zoomAndPan="magnify"><defs/><g><!--cluster Autenticaci?n--><g class="cluster" data-entity="Autenticaci&#243;n" data-source-line="8" data-uid="ent0003" id="cluster_Autenticaci&#243;n"><rect fill="none" height="214" rx="2.5" ry="2.5" style="stroke:#181818;stroke-width:1;" width="170.8" x="103.2" y="1205.09"/><text fill="#000000" font-family="sans-serif" font-size="14" font-weight="bold" lengthAdjust="spacing" textLength="108.876" x="134.162" y="1220.0851">Autenticaci&#243;n</text></g><!--cluster Historias--><g class="cluster" data-entity="Historias" data-source-line="18" data-uid="ent0010" id="cluster_Historias"><rect fill="none" height="283" rx="2.5" ry="2.5" style="stroke:#181818;stroke-width:1;" width="178.24" x="629.96" y="45.09"/><text fill="#000000" font-family="sans-serif" font-size="14" font-weight="bold" lengthAdjust="spacing" textLength="70.6426" x="683.7587" y="60.0851">Historias</text></g><!--cluster Cap?tulos--><g class="cluster" data-entity="Cap&#237;tulos" data-source-line="30" data-uid="ent0019" id="cluster_Cap&#237;tulos"><rect fill="none" height="300" rx="2.5" ry="2.5" style="stroke:#181818;stroke-width:1;" width="236.95" x="318.67" y="217.09"/><text fill="#000000" font-family="sans-serif" font-size="14" font-weight="bold" lengthAdjust="spacing" textLength="73.9512" x="400.1694" y="232.0851">Cap&#237;tulos</text></g><!--cluster Escenas--><g class="cluster" data-entity="Escenas" data-source-line="43" data-uid="ent0029" id="cluster_Escenas"><rect fill="none" height="377" rx="2.5" ry="2.5" style="stroke:#181818;stroke-width:1;" width="238.42" x="317.93" y="541.09"/><text fill="#000000" font-family="sans-serif" font-size="14" font-weight="bold" lengthAdjust="spacing" textLength="63.4375" x="405.4213" y="556.0851">Escenas</text></g><!--cluster Personajes--><g class="cluster" data-entity="Personajes" data-source-line="58" data-uid="ent0041" id="cluster_Personajes"><rect fill="none" height="387" rx="2.5" ry="2.5" style="stroke:#181818;stroke-width:1;" width="249.06" x="312.61" y="942.09"/><text fill="#000000" font-family="sans-serif" font-size="14" font-weight="bold" lengthAdjust="spacing" textLength="86.6523" x="393.8138" y="957.0851">Personajes</text></g><!--cluster Universos--><g class="cluster" data-entity="Universos" data-source-line="73" data-uid="ent0053" id="cluster_Universos"><rect fill="none" height="303" rx="2.5" ry="2.5" style="stroke:#181818;stroke-width:1;" width="240.86" x="316.71" y="1353.09"/><text fill="#000000" font-family="sans-serif" font-size="14" font-weight="bold" lengthAdjust="spacing" textLength="77.9434" x="398.1683" y="1368.0851">Universos</text></g><!--cluster Etiquetas (Tags)--><g class="cluster" data-entity="Etiquetas (Tags)" data-source-line="86" data-uid="ent0063" id="cluster_Etiquetas (Tags)"><rect fill="none" height="225" rx="2.5" ry="2.5" style="stroke:#181818;stroke-width:1;" width="233.12" x="320.58" y="1680.09"/><text fill="#000000" font-family="sans-serif" font-size="14" font-weight="bold" lengthAdjust="spacing" textLength="130.0332" x="372.1234" y="1695.0851">Etiquetas (Tags)</text></g><!--cluster Mapa Narrativo--><g class="cluster" data-entity="Mapa Narrativo" data-source-line="96" data-uid="ent0070" id="cluster_Mapa Narrativo"><rect fill="none" height="220" rx="2.5" ry="2.5" style="stroke:#181818;stroke-width:1;" width="182.6" x="345.84" y="1929.09"/><text fill="#000000" font-family="sans-serif" font-size="14" font-weight="bold" lengthAdjust="spacing" textLength="122.377" x="375.9515" y="1944.0851">Mapa Narrativo</text></g><!--cluster Generador de Nombres--><g class="cluster" data-entity="Generador de Nombres" data-source-line="107" data-uid="ent0078" id="cluster_Generador de Nombres"><rect fill="none" height="103" rx="2.5" ry="2.5" style="stroke:#181818;stroke-width:1;" width="535.88" x="302" y="2204.09"/><text fill="#000000" font-family="sans-serif" font-size="14" font-weight="bold" lengthAdjust="spacing" textLength="183.2852" x="478.2974" y="2219.0851">Generador de Nombres</text></g><!--cluster Generador de Ideas--><g class="cluster" data-entity="Generador de Ideas" data-source-line="116" data-uid="ent0084" id="cluster_Generador de Ideas"><rect fill="none" height="97" rx="2.5" ry="2.5" style="stroke:#181818;stroke-width:1;" width="501.14" x="320.33" y="2362.09"/><text fill="#000000" font-family="sans-serif" font-size="14" font-weight="bold" lengthAdjust="spacing" textLength="155.1143" x="493.3429" y="2377.0851">Generador de Ideas</text></g><!--cluster Chat Narrativo--><g class="cluster" data-entity="Chat Narrativo" data-source-line="125" data-uid="ent0090" id="cluster_Chat Narrativo"><rect fill="none" height="99" rx="2.5" ry="2.5" style="stroke:#181818;stroke-width:1;" width="498.73" x="314.52" y="2514.09"/><text fill="#000000" font-family="sans-serif" font-size="14" font-weight="bold" lengthAdjust="spacing" textLength="115.9102" x="505.9299" y="2529.0851">Chat Narrativo</text></g><!--entity UC_Registrarse--><g class="entity" data-entity="UC_Registrarse" data-source-line="9" data-uid="ent0004" id="entity_UC_Registrarse"><ellipse cx="188.5967" cy="1388.0936" fill="#F1F1F1" rx="59.4967" ry="14.5236" style="stroke:#181818;stroke-width:0.5;"/><text fill="#000000" font-family="sans-serif" font-size="14" lengthAdjust="spacing" textLength="79.8984" x="148.6475" y="1392.7421">Registrarse</text></g><!--entity UC_Login--><g class="entity" data-entity="UC_Login" data-source-line="10" data-uid="ent0005" id="entity_UC_Login"><ellipse cx="188.6011" cy="1323.0942" fill="#F1F1F1" rx="64.3711" ry="15.2742" style="stroke:#181818;stroke-width:0.5;"/><text fill="#000000" font-family="sans-serif" font-size="14" lengthAdjust="spacing" textLength="91.793" x="142.7046" y="1327.7427">Iniciar sesi&#243;n</text></g><!--entity UC_Sesion--><g class="entity" data-entity="UC_Sesion" data-source-line="11" data-uid="ent0006" id="entity_UC_Sesion"><ellipse cx="188.5976" cy="1256.0895" fill="#F1F1F1" rx="69.3976" ry="16.2795" style="stroke:#181818;stroke-width:0.5;"/><text fill="#000000" font-family="sans-serif" font-size="14" lengthAdjust="spacing" textLength="104.8564" x="136.1694" y="1260.738">Sesi&#243;n iniciada</text></g><!--entity UC_CrearHistoria--><g class="entity" data-entity="UC_CrearHistoria" data-source-line="19" data-uid="ent0011" id="entity_UC_CrearHistoria"><ellipse cx="719.0802" cy="296.086" fill="#F1F1F1" rx="65.6802" ry="15.536" style="stroke:#181818;stroke-width:0.5;"/><text fill="#000000" font-family="sans-serif" font-size="14" lengthAdjust="spacing" textLength="95.2656" x="671.4474" y="300.7345">Crear historia</text></g><!--entity UC_EditarHistoria--><g class="entity" data-entity="UC_EditarHistoria" data-source-line="20" data-uid="ent0012" id="entity_UC_EditarHistoria"><ellipse cx="719.0848" cy="230.093" fill="#F1F1F1" rx="66.8148" ry="15.763" style="stroke:#181818;stroke-width:0.5;"/><text fill="#000000" font-family="sans-serif" font-size="14" lengthAdjust="spacing" textLength="98.2324" x="669.9686" y="234.7414">Editar historia</text></g><!--entity UC_EliminarHistoria--><g class="entity" data-entity="UC_EliminarHistoria" data-source-line="21" data-uid="ent0013" id="entity_UC_EliminarHistoria"><ellipse cx="719.0833" cy="97.0947" fill="#F1F1F1" rx="73.1233" ry="17.0247" style="stroke:#181818;stroke-width:0.5;"/><text fill="#000000" font-family="sans-serif" font-size="14" lengthAdjust="spacing" textLength="114.1465" x="662.0101" y="101.7431">Eliminar historia</text></g><!--entity UC_VerHistorias--><g class="entity" data-entity="UC_VerHistorias" data-source-line="22" data-uid="ent0014" id="entity_UC_VerHistorias"><ellipse cx="719.0757" cy="164.0851" fill="#F1F1F1" rx="62.9757" ry="14.9951" style="stroke:#181818;stroke-width:0.5;"/><text fill="#000000" font-family="sans-serif" font-size="14" lengthAdjust="spacing" textLength="88.0264" x="675.0625" y="168.7336">Ver historias</text></g><!--entity UC_CrearCapitulo--><g class="entity" data-entity="UC_CrearCapitulo" data-source-line="31" data-uid="ent0020" id="entity_UC_CrearCapitulo"><ellipse cx="437.1434" cy="335.0867" fill="#F1F1F1" rx="67.0334" ry="15.8067" style="stroke:#181818;stroke-width:0.5;"/><text fill="#000000" font-family="sans-serif" font-size="14" lengthAdjust="spacing" textLength="98.7998" x="387.7435" y="339.7351">Crear cap&#237;tulo</text></g><!--entity UC_EditarCapitulo--><g class="entity" data-entity="UC_EditarCapitulo" data-source-line="32" data-uid="ent0021" id="entity_UC_EditarCapitulo"><ellipse cx="437.1446" cy="268.0869" fill="#F1F1F1" rx="68.1846" ry="16.0369" style="stroke:#181818;stroke-width:0.5;"/><text fill="#000000" font-family="sans-serif" font-size="14" lengthAdjust="spacing" textLength="101.7666" x="386.2613" y="272.7354">Editar cap&#237;tulo</text></g><!--entity UC_EliminarCapitulo--><g class="entity" data-entity="UC_EliminarCapitulo" data-source-line="33" data-uid="ent0022" id="entity_UC_EliminarCapitulo"><ellipse cx="437.1389" cy="484.0938" fill="#F1F1F1" rx="74.5689" ry="17.3138" style="stroke:#181818;stroke-width:0.5;"/><text fill="#000000" font-family="sans-serif" font-size="14" lengthAdjust="spacing" textLength="117.6807" x="378.2986" y="488.7422">Eliminar cap&#237;tulo</text></g><!--entity UC_AsociarCapituloHistoria--><g class="entity" data-entity="UC_AsociarCapituloHistoria" data-source-line="34" data-uid="ent0023" id="entity_UC_AsociarCapituloHistoria"><ellipse cx="437.1434" cy="409.0947" fill="#F1F1F1" rx="102.4734" ry="22.8947" style="stroke:#181818;stroke-width:0.5;"/><text fill="#000000" font-family="sans-serif" font-size="14" lengthAdjust="spacing" textLength="181.4941" x="346.3963" y="413.7431">Asociar cap&#237;tulo a historia</text></g><!--entity UC_CrearEscena--><g class="entity" data-entity="UC_CrearEscena" data-source-line="44" data-uid="ent0030" id="entity_UC_CrearEscena"><ellipse cx="437.1433" cy="806.0947" fill="#F1F1F1" rx="64.6733" ry="15.3347" style="stroke:#181818;stroke-width:0.5;"/><text fill="#000000" font-family="sans-serif" font-size="14" lengthAdjust="spacing" textLength="92.5996" x="390.8435" y="810.7431">Crear escena</text></g><!--entity UC_EditarEscena--><g class="entity" data-entity="UC_EditarEscena" data-source-line="45" data-uid="ent0031" id="entity_UC_EditarEscena"><ellipse cx="437.1446" cy="740.0889" fill="#F1F1F1" rx="65.7946" ry="15.5589" style="stroke:#181818;stroke-width:0.5;"/><text fill="#000000" font-family="sans-serif" font-size="14" lengthAdjust="spacing" textLength="95.5664" x="389.3614" y="744.7374">Editar escena</text></g><!--entity UC_EliminarEscena--><g class="entity" data-entity="UC_EliminarEscena" data-source-line="46" data-uid="ent0032" id="entity_UC_EliminarEscena"><ellipse cx="437.1427" cy="673.0885" fill="#F1F1F1" rx="72.0427" ry="16.8085" style="stroke:#181818;stroke-width:0.5;"/><text fill="#000000" font-family="sans-serif" font-size="14" lengthAdjust="spacing" textLength="111.4805" x="381.4025" y="677.737">Eliminar escena</text></g><!--entity UC_AsociarEscenaCapitulo--><g class="entity" data-entity="UC_AsociarEscenaCapitulo" data-source-line="47" data-uid="ent0033" id="entity_UC_AsociarEscenaCapitulo"><ellipse cx="437.1388" cy="599.0918" fill="#F1F1F1" rx="101.2588" ry="22.6518" style="stroke:#181818;stroke-width:0.5;"/><text fill="#000000" font-family="sans-serif" font-size="14" lengthAdjust="spacing" textLength="178.8281" x="347.7248" y="603.7402">Asociar escena a cap&#237;tulo</text></g><!--entity UC_AsociarEscenaUniverso--><g class="entity" data-entity="UC_AsociarEscenaUniverso" data-source-line="48" data-uid="ent0034" id="entity_UC_AsociarEscenaUniverso"><ellipse cx="437.1398" cy="879.092" fill="#F1F1F1" rx="103.2098" ry="23.042" style="stroke:#181818;stroke-width:0.5;"/><text fill="#000000" font-family="sans-serif" font-size="14" lengthAdjust="spacing" textLength="183.1074" x="345.5861" y="883.7404">Asociar escena a universo</text></g><!--entity UC_CrearPersonaje--><g class="entity" data-entity="UC_CrearPersonaje" data-source-line="59" data-uid="ent0042" id="entity_UC_CrearPersonaje"><ellipse cx="437.1426" cy="1219.0905" fill="#F1F1F1" rx="72.2526" ry="16.8505" style="stroke:#181818;stroke-width:0.5;"/><text fill="#000000" font-family="sans-serif" font-size="14" lengthAdjust="spacing" textLength="112" x="381.1426" y="1223.739">Crear personaje</text></g><!--entity UC_EditarPersonaje--><g class="entity" data-entity="UC_EditarPersonaje" data-source-line="60" data-uid="ent0043" id="entity_UC_EditarPersonaje"><ellipse cx="437.1376" cy="1150.0915" fill="#F1F1F1" rx="73.4576" ry="17.0915" style="stroke:#181818;stroke-width:0.5;"/><text fill="#000000" font-family="sans-serif" font-size="14" lengthAdjust="spacing" textLength="114.9668" x="379.6542" y="1154.7399">Editar personaje</text></g><!--entity UC_EliminarPersonaje--><g class="entity" data-entity="UC_EliminarPersonaje" data-source-line="61" data-uid="ent0044" id="entity_UC_EliminarPersonaje"><ellipse cx="437.1368" cy="1079.0874" fill="#F1F1F1" rx="80.0868" ry="18.4174" style="stroke:#181818;stroke-width:0.5;"/><text fill="#000000" font-family="sans-serif" font-size="14" lengthAdjust="spacing" textLength="130.8809" x="371.6964" y="1083.7358">Eliminar personaje</text></g><!--entity UC_AsociarPersonajeHistoria--><g class="entity" data-entity="UC_AsociarPersonajeHistoria" data-source-line="62" data-uid="ent0045" id="entity_UC_AsociarPersonajeHistoria"><ellipse cx="437.1391" cy="1001.0858" fill="#F1F1F1" rx="108.5291" ry="24.1058" style="stroke:#181818;stroke-width:0.5;"/><text fill="#000000" font-family="sans-serif" font-size="14" lengthAdjust="spacing" textLength="194.6943" x="339.792" y="1005.7343">Asociar personaje a historia</text></g><!--entity UC_AsociarTagPersonaje--><g class="entity" data-entity="UC_AsociarTagPersonaje" data-source-line="63" data-uid="ent0046" id="entity_UC_AsociarTagPersonaje"><ellipse cx="437.1424" cy="1292.0905" fill="#F1F1F1" rx="95.1524" ry="21.4305" style="stroke:#181818;stroke-width:0.5;"/><text fill="#000000" font-family="sans-serif" font-size="14" lengthAdjust="spacing" textLength="165.3135" x="354.4856" y="1296.7389">Asociar tag a personaje</text></g><!--entity UC_CrearUniverso--><g class="entity" data-entity="UC_CrearUniverso" data-source-line="74" data-uid="ent0054" id="entity_UC_CrearUniverso"><ellipse cx="437.1382" cy="1472.0896" fill="#F1F1F1" rx="68.6982" ry="16.1396" style="stroke:#181818;stroke-width:0.5;"/><text fill="#000000" font-family="sans-serif" font-size="14" lengthAdjust="spacing" textLength="103.0791" x="385.5986" y="1476.7381">Crear universo</text></g><!--entity UC_EditarUniverso--><g class="entity" data-entity="UC_EditarUniverso" data-source-line="75" data-uid="ent0055" id="entity_UC_EditarUniverso"><ellipse cx="437.1382" cy="1404.0936" fill="#F1F1F1" rx="69.8682" ry="16.3736" style="stroke:#181818;stroke-width:0.5;"/><text fill="#000000" font-family="sans-serif" font-size="14" lengthAdjust="spacing" textLength="106.0459" x="384.1153" y="1408.7421">Editar universo</text></g><!--entity UC_EliminarUniverso--><g class="entity" data-entity="UC_EliminarUniverso" data-source-line="76" data-uid="ent0056" id="entity_UC_EliminarUniverso"><ellipse cx="437.1381" cy="1622.0876" fill="#F1F1F1" rx="76.3381" ry="17.6676" style="stroke:#181818;stroke-width:0.5;"/><text fill="#000000" font-family="sans-serif" font-size="14" lengthAdjust="spacing" textLength="121.96" x="376.1582" y="1626.7361">Eliminar universo</text></g><!--entity UC_AsociarUniversoHistoria--><g class="entity" data-entity="UC_AsociarUniversoHistoria" data-source-line="77" data-uid="ent0057" id="entity_UC_AsociarUniversoHistoria"><ellipse cx="437.1391" cy="1546.0858" fill="#F1F1F1" rx="104.4291" ry="23.2858" style="stroke:#181818;stroke-width:0.5;"/><text fill="#000000" font-family="sans-serif" font-size="14" lengthAdjust="spacing" textLength="185.7734" x="344.2524" y="1550.7343">Asociar universo a historia</text></g><!--entity UC_CrearTag--><g class="entity" data-entity="UC_CrearTag" data-source-line="87" data-uid="ent0064" id="entity_UC_CrearTag"><ellipse cx="437.1376" cy="1730.0936" fill="#F1F1F1" rx="49.5876" ry="14.5236" style="stroke:#181818;stroke-width:0.5;"/><text fill="#000000" font-family="sans-serif" font-size="14" lengthAdjust="spacing" textLength="65.8848" x="404.1952" y="1734.7421">Crear tag</text></g><!--entity UC_EliminarTag--><g class="entity" data-entity="UC_EliminarTag" data-source-line="88" data-uid="ent0065" id="entity_UC_EliminarTag"><ellipse cx="437.1397" cy="1874.0879" fill="#F1F1F1" rx="61.7897" ry="14.7579" style="stroke:#181818;stroke-width:0.5;"/><text fill="#000000" font-family="sans-serif" font-size="14" lengthAdjust="spacing" textLength="84.7656" x="394.7569" y="1878.7364">Eliminar tag</text></g><!--entity UC_FiltrarTags--><g class="entity" data-entity="UC_FiltrarTags" data-source-line="89" data-uid="ent0066" id="entity_UC_FiltrarTags"><ellipse cx="437.1395" cy="1802.0919" fill="#F1F1F1" rx="100.5595" ry="22.5119" style="stroke:#181818;stroke-width:0.5;"/><text fill="#000000" font-family="sans-serif" font-size="14" lengthAdjust="spacing" textLength="177.29" x="348.4945" y="1806.7403">Filtrar personajes por tag</text></g><!--entity UC_GenerarMapa--><g class="entity" data-entity="UC_GenerarMapa" data-source-line="97" data-uid="ent0071" id="entity_UC_GenerarMapa"><ellipse cx="437.1428" cy="1980.0906" fill="#F1F1F1" rx="67.9528" ry="15.9906" style="stroke:#181818;stroke-width:0.5;"/><text fill="#000000" font-family="sans-serif" font-size="14" lengthAdjust="spacing" textLength="101.1719" x="386.5568" y="1984.739">Generar mapa</text></g><!--entity UC_FiltrarMapa--><g class="entity" data-entity="UC_FiltrarMapa" data-source-line="98" data-uid="ent0072" id="entity_UC_FiltrarMapa"><ellipse cx="437.1385" cy="2116.0897" fill="#F1F1F1" rx="75.2985" ry="17.4597" style="stroke:#181818;stroke-width:0.5;"/><text fill="#000000" font-family="sans-serif" font-size="14" lengthAdjust="spacing" textLength="119.4512" x="377.4129" y="2120.7381">Filtrar elementos</text></g><!--entity UC_ExportarMapa--><g class="entity" data-entity="UC_ExportarMapa" data-source-line="99" data-uid="ent0073" id="entity_UC_ExportarMapa"><ellipse cx="437.1365" cy="2047.0853" fill="#F1F1F1" rx="69.1765" ry="16.2353" style="stroke:#181818;stroke-width:0.5;"/><text fill="#000000" font-family="sans-serif" font-size="14" lengthAdjust="spacing" textLength="104.2959" x="384.9886" y="2051.7337">Exportar mapa</text></g><!--entity UC_GenerarNombre--><g class="entity" data-entity="UC_GenerarNombre" data-source-line="108" data-uid="ent0079" id="entity_UC_GenerarNombre"><ellipse cx="719.0847" cy="2264.0889" fill="#F1F1F1" rx="102.7947" ry="22.9589" style="stroke:#181818;stroke-width:0.5;"/><text fill="#000000" font-family="sans-serif" font-size="14" lengthAdjust="spacing" textLength="182.1982" x="627.9855" y="2268.7374">Generar nombre aleatorio</text></g><!--entity UC_CrearDesdeNombre--><g class="entity" data-entity="UC_CrearDesdeNombre" data-source-line="109" data-uid="ent0080" id="entity_UC_CrearDesdeNombre"><ellipse cx="437.1437" cy="2265.0887" fill="#F1F1F1" rx="119.1437" ry="26.2287" style="stroke:#181818;stroke-width:0.5;"/><text fill="#000000" font-family="sans-serif" font-size="14" lengthAdjust="spacing" textLength="217.5264" x="328.3805" y="2269.7372">Crear personaje desde nombre</text></g><!--entity UC_PromptIdea--><g class="entity" data-entity="UC_PromptIdea" data-source-line="117" data-uid="ent0085" id="entity_UC_PromptIdea"><ellipse cx="719.0758" cy="2419.0872" fill="#F1F1F1" rx="86.3858" ry="19.6772" style="stroke:#181818;stroke-width:0.5;"/><text fill="#000000" font-family="sans-serif" font-size="14" lengthAdjust="spacing" textLength="145.5098" x="646.321" y="2423.7356">Escribir prompt base</text></g><!--entity UC_GenerarIdea--><g class="entity" data-entity="UC_GenerarIdea" data-source-line="118" data-uid="ent0086" id="entity_UC_GenerarIdea"><ellipse cx="437.1443" cy="2420.0929" fill="#F1F1F1" rx="100.8143" ry="22.5629" style="stroke:#181818;stroke-width:0.5;"/><text fill="#000000" font-family="sans-serif" font-size="14" lengthAdjust="spacing" textLength="177.8506" x="348.219" y="2424.7413">Generar idea narrativa IA</text></g><!--entity UC_EnviarChat--><g class="entity" data-entity="UC_EnviarChat" data-source-line="126" data-uid="ent0091" id="entity_UC_EnviarChat"><ellipse cx="719.0769" cy="2570.0934" fill="#F1F1F1" rx="78.1669" ry="18.0334" style="stroke:#181818;stroke-width:0.5;"/><text fill="#000000" font-family="sans-serif" font-size="14" lengthAdjust="spacing" textLength="126.335" x="655.9094" y="2574.7418">Enviar mensaje IA</text></g><!--entity UC_RespuestaChat--><g class="entity" data-entity="UC_RespuestaChat" data-source-line="127" data-uid="ent0092" id="entity_UC_RespuestaChat"><ellipse cx="437.1384" cy="2573.0937" fill="#F1F1F1" rx="106.6184" ry="23.7237" style="stroke:#181818;stroke-width:0.5;"/><text fill="#000000" font-family="sans-serif" font-size="14" lengthAdjust="spacing" textLength="190.5449" x="341.8659" y="2577.7421">Recibir respuesta narrativa</text></g><!--entity Usuario--><g class="entity" data-entity="Usuario" data-source-line="5" data-uid="ent0002" id="entity_Usuario"><ellipse cx="32.6021" cy="1293.44" fill="#F1F1F1" rx="8" ry="8" style="stroke:#181818;stroke-width:0.5;"/><path d="M32.6021,1301.44 L32.6021,1328.44 M19.6021,1309.44 L45.6021,1309.44 M32.6021,1328.44 L19.6021,1343.44 M32.6021,1328.44 L45.6021,1343.44" fill="none" style="stroke:#181818;stroke-width:0.5;"/><text fill="#000000" font-family="sans-serif" font-size="14" lengthAdjust="spacing" textLength="53.2041" x="6" y="1357.9351">Usuario</text></g><!--link Usuario to UC_Registrarse--><g class="link" data-entity-1="Usuario" data-entity-2="UC_Registrarse" data-source-line="13" data-uid="lnk7" id="link_Usuario_UC_Registrarse"><path d="M59.53,1338.16 C70.36,1344.14 83.2,1350.84 95.2,1356.09 C112.93,1363.85 127.4902,1369.1657 144.5202,1374.7657" fill="none" id="Usuario-to-UC_Registrarse" style="stroke:#181818;stroke-width:1;"/><polygon fill="#181818" points="150.22,1376.64,142.9199,1370.0288,145.4702,1375.0781,140.4209,1377.6284,150.22,1376.64" style="stroke:#181818;stroke-width:1;"/></g><!--link Usuario to UC_Login--><g class="link" data-entity-1="Usuario" data-entity-2="UC_Login" data-source-line="14" data-uid="lnk8" id="link_Usuario_UC_Login"><path d="M59.38,1323.09 C77.02,1323.09 95.22,1323.09 117.85,1323.09" fill="none" id="Usuario-to-UC_Login" style="stroke:#181818;stroke-width:1;"/><polygon fill="#181818" points="123.85,1323.09,114.85,1319.09,118.85,1323.09,114.85,1327.09,123.85,1323.09" style="stroke:#181818;stroke-width:1;"/></g><!--link Usuario to UC_Sesion--><g class="link" data-entity-1="Usuario" data-entity-2="UC_Sesion" data-source-line="15" data-uid="lnk9" id="link_Usuario_UC_Sesion"><path d="M59.58,1308.14 C70.42,1302.17 83.25,1295.46 95.2,1290.09 C112.04,1282.53 125.4654,1277.2965 141.8954,1271.4665" fill="none" id="Usuario-to-UC_Sesion" style="stroke:#181818;stroke-width:1;"/><polygon fill="#181818" points="147.55,1269.46,137.7305,1268.7,142.8379,1271.132,140.4058,1276.2394,147.55,1269.46" style="stroke:#181818;stroke-width:1;"/></g><!--link UC_Sesion to UC_CrearHistoria--><g class="link" data-entity-1="UC_Sesion" data-entity-2="UC_CrearHistoria" data-source-line="24" data-uid="lnk15" id="link_UC_Sesion_UC_CrearHistoria"><path d="M189.99,1239.67 C193.1,1113.94 216.05,306.47 294,236.09 C384.94,153.98 451.35,204.3 569.67,236.09 C592.79,242.3 594.42,253.34 616.29,263.09 C634.95,271.41 650.6293,276.9253 668.9893,282.5053" fill="none" id="UC_Sesion-to-UC_CrearHistoria" style="stroke:#181818;stroke-width:1;"/><polygon fill="#181818" points="674.73,284.25,667.2821,277.8058,669.9461,282.7961,664.9558,285.4601,674.73,284.25" style="stroke:#181818;stroke-width:1;"/></g><!--link UC_Sesion to UC_EditarHistoria--><g class="link" data-entity-1="UC_Sesion" data-entity-2="UC_EditarHistoria" data-source-line="25" data-uid="lnk16" id="link_UC_Sesion_UC_EditarHistoria"><path d="M189.91,1239.32 C192.51,1109.06 212.5,262.01 294,188.09 C384.75,105.78 448.31,171.25 569.67,188.09 C608.66,193.5 646.1312,204.6131 675.8012,214.7331" fill="none" id="UC_Sesion-to-UC_EditarHistoria" style="stroke:#181818;stroke-width:1;"/><polygon fill="#181818" points="681.48,216.67,674.2532,209.9788,676.7477,215.0559,671.6706,217.5504,681.48,216.67" style="stroke:#181818;stroke-width:1;"/></g><!--link UC_Sesion to UC_EliminarHistoria--><g class="link" data-entity-1="UC_Sesion" data-entity-2="UC_EliminarHistoria" data-source-line="26" data-uid="lnk17" id="link_UC_Sesion_UC_EliminarHistoria"><path d="M189.8,1239.35 C191.61,1103.6 206.98,186.09 294,105.09 C400.45,6 589.3637,53.1551 672.7437,80.7451" fill="none" id="UC_Sesion-to-UC_EliminarHistoria" style="stroke:#181818;stroke-width:1;"/><polygon fill="#181818" points="678.44,82.63,671.1522,76.0052,673.6931,81.0593,668.639,83.6002,678.44,82.63" style="stroke:#181818;stroke-width:1;"/></g><!--link UC_Sesion to UC_VerHistorias--><g class="link" data-entity-1="UC_Sesion" data-entity-2="UC_VerHistorias" data-source-line="27" data-uid="lnk18" id="link_UC_Sesion_UC_VerHistorias"><path d="M189.84,1239.45 C191.93,1106.5 208.99,219.5 294,142.09 C348.1,92.82 567.3974,131.9603 665.8274,152.5703" fill="none" id="UC_Sesion-to-UC_VerHistorias" style="stroke:#181818;stroke-width:1;"/><polygon fill="#181818" points="671.7,153.8,663.7108,148.0404,666.8061,152.7753,662.0713,155.8706,671.7,153.8" style="stroke:#181818;stroke-width:1;"/></g><!--link UC_Sesion to UC_CrearCapitulo--><g class="link" data-entity-1="UC_Sesion" data-entity-2="UC_CrearCapitulo" data-source-line="36" data-uid="lnk24" id="link_UC_Sesion_UC_CrearCapitulo"><path d="M190.43,1239.44 C196.34,1123.3 233.68,436.96 294,369.09 C312.88,347.85 336.5013,339.4726 363.7913,335.8826" fill="none" id="UC_Sesion-to-UC_CrearCapitulo" style="stroke:#181818;stroke-width:1;"/><polygon fill="#181818" points="369.74,335.1,360.2952,332.308,364.7827,335.7521,361.3386,340.2397,369.74,335.1" style="stroke:#181818;stroke-width:1;"/></g><!--link UC_Sesion to UC_EditarCapitulo--><g class="link" data-entity-1="UC_Sesion" data-entity-2="UC_EditarCapitulo" data-source-line="37" data-uid="lnk25" id="link_UC_Sesion_UC_EditarCapitulo"><path d="M190.29,1239.37 C195.41,1118.04 229.27,375.52 294,302.09 C312.54,281.06 335.615,272.6606 362.605,268.9806" fill="none" id="UC_Sesion-to-UC_EditarCapitulo" style="stroke:#181818;stroke-width:1;"/><polygon fill="#181818" points="368.55,268.17,359.0921,265.4225,363.5958,268.8455,360.1729,273.3492,368.55,268.17" style="stroke:#181818;stroke-width:1;"/></g><!--link UC_Sesion to UC_EliminarCapitulo--><g class="link" data-entity-1="UC_Sesion" data-entity-2="UC_EliminarCapitulo" data-source-line="38" data-uid="lnk26" id="link_UC_Sesion_UC_EliminarCapitulo"><path d="M190.11,1239.56 C193.28,1145.22 213,674.91 294,560.09 C316.34,528.42 350.4595,510.7879 382.2695,499.4279" fill="none" id="UC_Sesion-to-UC_EliminarCapitulo" style="stroke:#181818;stroke-width:1;"/><polygon fill="#181818" points="387.92,497.41,378.099,496.6699,383.2113,499.0916,380.7895,504.2039,387.92,497.41" style="stroke:#181818;stroke-width:1;"/></g><!--link UC_Sesion to UC_AsociarCapituloHistoria--><g class="link" data-entity-1="UC_Sesion" data-entity-2="UC_AsociarCapituloHistoria" data-source-line="39" data-uid="lnk27" id="link_UC_Sesion_UC_AsociarCapituloHistoria"><path d="M189.36,1239.41 C188.17,1135.12 186.86,573.09 294,449.09 C306.82,434.25 318.964,426.5653 337.694,420.4753" fill="none" id="UC_Sesion-to-UC_AsociarCapituloHistoria" style="stroke:#181818;stroke-width:1;"/><polygon fill="#181818" points="343.4,418.62,333.6042,417.5989,338.645,420.1661,336.0779,425.2069,343.4,418.62" style="stroke:#181818;stroke-width:1;"/></g><!--link UC_AsociarCapituloHistoria to UC_CrearHistoria--><g class="link" data-entity-1="UC_AsociarCapituloHistoria" data-entity-2="UC_CrearHistoria" data-source-line="40" data-uid="lnk28" id="link_UC_AsociarCapituloHistoria_UC_CrearHistoria"><path d="M502.7,391.07 C524.24,384.5 548.21,376.59 569.67,368.09 C613.34,350.8 656.6667,328.9263 685.9767,313.4163" fill="none" id="UC_AsociarCapituloHistoria-to-UC_CrearHistoria" style="stroke:#181818;stroke-width:1;"/><polygon fill="#181818" points="691.28,310.61,681.4542,311.284,686.8606,312.9486,685.196,318.355,691.28,310.61" style="stroke:#181818;stroke-width:1;"/></g><!--link UC_Sesion to UC_CrearEscena--><g class="link" data-entity-1="UC_Sesion" data-entity-2="UC_CrearEscena" data-source-line="50" data-uid="lnk35" id="link_UC_Sesion_UC_CrearEscena"><path d="M191.44,1239.48 C199.56,1169.07 234.48,896.24 294,838.09 C314.54,818.03 338.8435,810.1811 366.1835,806.8711" fill="none" id="UC_Sesion-to-UC_CrearEscena" style="stroke:#181818;stroke-width:1;"/><polygon fill="#181818" points="372.14,806.15,362.7245,803.2607,367.1762,806.751,363.686,811.2027,372.14,806.15" style="stroke:#181818;stroke-width:1;"/></g><!--link UC_Sesion to UC_EditarEscena--><g class="link" data-entity-1="UC_Sesion" data-entity-2="UC_EditarEscena" data-source-line="51" data-uid="lnk36" id="link_UC_Sesion_UC_EditarEscena"><path d="M190.86,1239.33 C197.02,1162.14 226.35,841.78 294,773.09 C314,752.78 337.9196,744.7198 365.1296,741.1998" fill="none" id="UC_Sesion-to-UC_EditarEscena" style="stroke:#181818;stroke-width:1;"/><polygon fill="#181818" points="371.08,740.43,361.6412,737.6177,366.1213,741.0715,362.6676,745.5516,371.08,740.43" style="stroke:#181818;stroke-width:1;"/></g><!--link UC_Sesion to UC_EliminarEscena--><g class="link" data-entity-1="UC_Sesion" data-entity-2="UC_EliminarEscena" data-source-line="52" data-uid="lnk37" id="link_UC_Sesion_UC_EliminarEscena"><path d="M190.4,1239.34 C194.74,1155.99 218.06,786.67 294,707.09 C312.3,687.91 333.4277,679.6824 359.0277,675.5224" fill="none" id="UC_Sesion-to-UC_EliminarEscena" style="stroke:#181818;stroke-width:1;"/><polygon fill="#181818" points="364.95,674.56,355.4249,672.0554,360.0147,675.362,356.7081,679.9518,364.95,674.56" style="stroke:#181818;stroke-width:1;"/></g><!--link UC_Sesion to UC_AsociarEscenaCapitulo--><g class="link" data-entity-1="UC_Sesion" data-entity-2="UC_AsociarEscenaCapitulo" data-source-line="53" data-uid="lnk38" id="link_UC_Sesion_UC_AsociarEscenaCapitulo"><path d="M190.08,1239.46 C193,1150.49 211.04,731.41 294,639.09 C307.36,624.22 320.0587,616.4975 339.2087,610.4475" fill="none" id="UC_Sesion-to-UC_AsociarEscenaCapitulo" style="stroke:#181818;stroke-width:1;"/><polygon fill="#181818" points="344.93,608.64,335.1431,607.5371,340.1623,610.1463,337.5531,615.1654,344.93,608.64" style="stroke:#181818;stroke-width:1;"/></g><!--link UC_Sesion to UC_AsociarEscenaUniverso--><g class="link" data-entity-1="UC_Sesion" data-entity-2="UC_AsociarEscenaUniverso" data-source-line="54" data-uid="lnk39" id="link_UC_Sesion_UC_AsociarEscenaUniverso"><path d="M191.44,1239.43 C197.53,1191.12 221.04,1048.8 294,961.09 C317.32,933.05 347.3971,915.0313 377.0971,901.5413" fill="none" id="UC_Sesion-to-UC_AsociarEscenaUniverso" style="stroke:#181818;stroke-width:1;"/><polygon fill="#181818" points="382.56,899.06,372.7115,899.14,378.0076,901.1277,376.0199,906.4239,382.56,899.06" style="stroke:#181818;stroke-width:1;"/></g><!--link UC_AsociarEscenaCapitulo to UC_CrearCapitulo--><g class="link" data-entity-1="UC_AsociarEscenaCapitulo" data-entity-2="UC_CrearCapitulo" data-source-line="55" data-uid="lnk40" id="link_UC_AsociarEscenaCapitulo_UC_CrearCapitulo"><path d="M383.43,579.44 C353.41,566.01 317.44,545.46 294,517.09 C280.79,501.09 281.47,425.79 288,386.59 C289.35,378.48 287.91,374.61 294,369.09 C314.71,350.3 337.969,342.2672 364.579,338.1972" fill="none" id="UC_AsociarEscenaCapitulo-to-UC_CrearCapitulo" style="stroke:#181818;stroke-width:1;"/><polygon fill="#181818" points="370.51,337.29,361.0087,334.6967,365.5675,338.046,362.2182,342.6047,370.51,337.29" style="stroke:#181818;stroke-width:1;"/></g><!--link UC_Sesion to UC_CrearPersonaje--><g class="link" data-entity-1="UC_Sesion" data-entity-2="UC_CrearPersonaje" data-source-line="65" data-uid="lnk47" id="link_UC_Sesion_UC_CrearPersonaje"><path d="M248.03,1247.32 C286.47,1241.55 330.7566,1234.9115 369.6266,1229.0715" fill="none" id="UC_Sesion-to-UC_CrearPersonaje" style="stroke:#181818;stroke-width:1;"/><polygon fill="#181818" points="375.56,1228.18,366.0656,1225.5616,370.6155,1228.9229,367.2542,1233.4728,375.56,1228.18" style="stroke:#181818;stroke-width:1;"/></g><!--link UC_Sesion to UC_EditarPersonaje--><g class="link" data-entity-1="UC_Sesion" data-entity-2="UC_EditarPersonaje" data-source-line="66" data-uid="lnk48" id="link_UC_Sesion_UC_EditarPersonaje"><path d="M208.37,1240.25 C228.38,1224.14 261.57,1199.55 294,1185.09 C319.88,1173.55 344.3103,1166.6736 370.2703,1161.1736" fill="none" id="UC_Sesion-to-UC_EditarPersonaje" style="stroke:#181818;stroke-width:1;"/><polygon fill="#181818" points="376.14,1159.93,366.5064,1157.8822,371.2486,1160.9663,368.1645,1165.7085,376.14,1159.93" style="stroke:#181818;stroke-width:1;"/></g><!--link UC_Sesion to UC_EliminarPersonaje--><g class="link" data-entity-1="UC_Sesion" data-entity-2="UC_EliminarPersonaje" data-source-line="67" data-uid="lnk49" id="link_UC_Sesion_UC_EliminarPersonaje"><path d="M197.03,1239.7 C211.35,1210.03 245.68,1147.49 294,1115.09 C314.93,1101.05 335.0674,1093.7665 359.0874,1088.5365" fill="none" id="UC_Sesion-to-UC_EliminarPersonaje" style="stroke:#181818;stroke-width:1;"/><polygon fill="#181818" points="364.95,1087.26,355.305,1085.2663,360.0645,1088.3238,357.007,1093.0832,364.95,1087.26" style="stroke:#181818;stroke-width:1;"/></g><!--link UC_Sesion to UC_AsociarPersonajeHistoria--><g class="link" data-entity-1="UC_Sesion" data-entity-2="UC_AsociarPersonajeHistoria" data-source-line="68" data-uid="lnk50" id="link_UC_Sesion_UC_AsociarPersonajeHistoria"><path d="M192.96,1239.42 C201.91,1199.36 230.12,1097.02 294,1043.09 C309.34,1030.14 322.8075,1023.015 342.0775,1016.825" fill="none" id="UC_Sesion-to-UC_AsociarPersonajeHistoria" style="stroke:#181818;stroke-width:1;"/><polygon fill="#181818" points="347.79,1014.99,337.9979,1013.9342,343.0296,1016.5192,340.4446,1021.5508,347.79,1014.99" style="stroke:#181818;stroke-width:1;"/></g><!--link UC_Sesion to UC_AsociarTagPersonaje--><g class="link" data-entity-1="UC_Sesion" data-entity-2="UC_AsociarTagPersonaje" data-source-line="69" data-uid="lnk51" id="link_UC_Sesion_UC_AsociarTagPersonaje"><path d="M248.34,1264.67 C280.67,1269.39 315.3131,1274.4421 350.4731,1279.5821" fill="none" id="UC_Sesion-to-UC_AsociarTagPersonaje" style="stroke:#181818;stroke-width:1;"/><polygon fill="#181818" points="356.41,1280.45,348.0833,1275.1902,351.4626,1279.7267,346.9261,1283.1061,356.41,1280.45" style="stroke:#181818;stroke-width:1;"/></g><!--link UC_AsociarPersonajeHistoria to UC_CrearHistoria--><g class="link" data-entity-1="UC_AsociarPersonajeHistoria" data-entity-2="UC_CrearHistoria" data-source-line="70" data-uid="lnk52" id="link_UC_AsociarPersonajeHistoria_UC_CrearHistoria"><path d="M490.79,979.69 C518.21,965.97 550.03,945.54 569.67,918.09 C715.18,714.72 719.6141,393.6794 718.5541,318.0494" fill="none" id="UC_AsociarPersonajeHistoria-to-UC_CrearHistoria" style="stroke:#181818;stroke-width:1;"/><polygon fill="#181818" points="718.47,312.05,714.5965,321.1052,718.5401,317.0495,722.5957,320.9931,718.47,312.05" style="stroke:#181818;stroke-width:1;"/></g><!--link UC_Sesion to UC_CrearUniverso--><g class="link" data-entity-1="UC_Sesion" data-entity-2="UC_CrearUniverso" data-source-line="79" data-uid="lnk58" id="link_UC_Sesion_UC_CrearUniverso"><path d="M245.96,1265.67 C259.76,1270.71 273.11,1278.38 282,1290.09 C301.96,1316.37 272.53,1413.03 294,1438.09 C312.24,1459.38 335.2733,1467.832 362.3233,1471.462" fill="none" id="UC_Sesion-to-UC_CrearUniverso" style="stroke:#181818;stroke-width:1;"/><polygon fill="#181818" points="368.27,1472.26,359.882,1467.0985,363.3144,1471.595,358.8179,1475.0274,368.27,1472.26" style="stroke:#181818;stroke-width:1;"/></g><!--link UC_Sesion to UC_EditarUniverso--><g class="link" data-entity-1="UC_Sesion" data-entity-2="UC_EditarUniverso" data-source-line="80" data-uid="lnk59" id="link_UC_Sesion_UC_EditarUniverso"><path d="M242.91,1266.52 C257.18,1271.57 271.54,1279.05 282,1290.09 C294.47,1303.26 282.43,1315.13 294,1329.09 C319.46,1359.81 355.192,1377.5674 386.752,1389.0574" fill="none" id="UC_Sesion-to-UC_EditarUniverso" style="stroke:#181818;stroke-width:1;"/><polygon fill="#181818" points="392.39,1391.11,385.3014,1384.2724,387.6917,1389.3995,382.5646,1391.7897,392.39,1391.11" style="stroke:#181818;stroke-width:1;"/></g><!--link UC_Sesion to UC_EliminarUniverso--><g class="link" data-entity-1="UC_Sesion" data-entity-2="UC_EliminarUniverso" data-source-line="81" data-uid="lnk60" id="link_UC_Sesion_UC_EliminarUniverso"><path d="M246.28,1265.44 C260.08,1270.47 273.35,1278.21 282,1290.09 C301.44,1316.79 273.11,1561.51 294,1587.09 C310.24,1606.97 329.8806,1615.5715 354.8606,1619.9615" fill="none" id="UC_Sesion-to-UC_EliminarUniverso" style="stroke:#181818;stroke-width:1;"/><polygon fill="#181818" points="360.77,1621,352.5982,1615.5026,355.8455,1620.1346,351.2135,1623.3818,360.77,1621" style="stroke:#181818;stroke-width:1;"/></g><!--link UC_Sesion to UC_AsociarUniversoHistoria--><g class="link" data-entity-1="UC_Sesion" data-entity-2="UC_AsociarUniversoHistoria" data-source-line="82" data-uid="lnk61" id="link_UC_Sesion_UC_AsociarUniversoHistoria"><path d="M246.16,1265.52 C259.96,1270.56 273.26,1278.27 282,1290.09 C310.59,1328.74 263.92,1468.59 294,1506.09 C305.95,1520.99 317.2974,1528.6745 335.4474,1534.8245" fill="none" id="UC_Sesion-to-UC_AsociarUniversoHistoria" style="stroke:#181818;stroke-width:1;"/><polygon fill="#181818" points="341.13,1536.75,333.8897,1530.0733,336.3945,1535.1454,331.3224,1537.6501,341.13,1536.75" style="stroke:#181818;stroke-width:1;"/></g><!--link UC_AsociarUniversoHistoria to UC_CrearHistoria--><g class="link" data-entity-1="UC_AsociarUniversoHistoria" data-entity-2="UC_CrearHistoria" data-source-line="83" data-uid="lnk62" id="link_UC_AsociarUniversoHistoria_UC_CrearHistoria"><path d="M527.52,1534.07 C543.59,1528.04 558.69,1519.16 569.67,1506.09 C650.68,1409.68 708.992,452.6999 716.832,317.7599" fill="none" id="UC_AsociarUniversoHistoria-to-UC_CrearHistoria" style="stroke:#181818;stroke-width:1;"/><polygon fill="#181818" points="717.18,311.77,712.6647,320.5228,716.89,316.7616,720.6512,320.9869,717.18,311.77" style="stroke:#181818;stroke-width:1;"/></g><!--link UC_Sesion to UC_CrearTag--><g class="link" data-entity-1="UC_Sesion" data-entity-2="UC_CrearTag" data-source-line="91" data-uid="lnk67" id="link_UC_Sesion_UC_CrearTag"><path d="M246.34,1265.39 C260.14,1270.43 273.39,1278.17 282,1290.09 C305.82,1323.08 272.32,1621.66 294,1656.09 C316.67,1692.11 357.2588,1709.8341 390.8788,1719.6141" fill="none" id="UC_Sesion-to-UC_CrearTag" style="stroke:#181818;stroke-width:1;"/><polygon fill="#181818" points="396.64,1721.29,389.1155,1714.9353,391.839,1719.8934,386.8809,1722.6169,396.64,1721.29" style="stroke:#181818;stroke-width:1;"/></g><!--link UC_Sesion to UC_EliminarTag--><g class="link" data-entity-1="UC_Sesion" data-entity-2="UC_EliminarTag" data-source-line="92" data-uid="lnk68" id="link_UC_Sesion_UC_EliminarTag"><path d="M246.42,1265.33 C260.23,1270.36 273.46,1278.13 282,1290.09 C299.82,1315.06 274.58,1818.35 294,1842.09 C313.46,1865.88 340.4779,1873.8369 369.7979,1876.1069" fill="none" id="UC_Sesion-to-UC_EliminarTag" style="stroke:#181818;stroke-width:1;"/><polygon fill="#181818" points="375.78,1876.57,367.1156,1871.8872,370.7949,1876.184,366.4981,1879.8634,375.78,1876.57" style="stroke:#181818;stroke-width:1;"/></g><!--link UC_Sesion to UC_FiltrarTags--><g class="link" data-entity-1="UC_Sesion" data-entity-2="UC_FiltrarTags" data-source-line="93" data-uid="lnk69" id="link_UC_Sesion_UC_FiltrarTags"><path d="M246.4,1265.35 C260.2,1270.38 273.44,1278.14 282,1290.09 C312.56,1332.73 261.79,1720.68 294,1762.09 C306.2,1777.77 318.3195,1785.7888 337.2695,1791.8988" fill="none" id="UC_Sesion-to-UC_FiltrarTags" style="stroke:#181818;stroke-width:1;"/><polygon fill="#181818" points="342.98,1793.74,335.6417,1787.1712,338.2212,1792.2056,333.1868,1794.7852,342.98,1793.74" style="stroke:#181818;stroke-width:1;"/></g><!--link UC_Sesion to UC_GenerarMapa--><g class="link" data-entity-1="UC_Sesion" data-entity-2="UC_GenerarMapa" data-source-line="101" data-uid="lnk74" id="link_UC_Sesion_UC_GenerarMapa"><path d="M246.44,1265.32 C260.25,1270.35 273.47,1278.12 282,1290.09 C301.82,1317.93 276.07,1876 294,1905.09 C314.64,1938.58 349.9641,1956.0746 382.6541,1966.7046" fill="none" id="UC_Sesion-to-UC_GenerarMapa" style="stroke:#181818;stroke-width:1;"/><polygon fill="#181818" points="388.36,1968.56,381.0381,1961.9729,383.6051,1967.0138,378.5642,1969.5808,388.36,1968.56" style="stroke:#181818;stroke-width:1;"/></g><!--link UC_Sesion to UC_FiltrarMapa--><g class="link" data-entity-1="UC_Sesion" data-entity-2="UC_FiltrarMapa" data-source-line="102" data-uid="lnk75" id="link_UC_Sesion_UC_FiltrarMapa"><path d="M246.48,1265.29 C260.28,1270.33 273.5,1278.1 282,1290.09 C307.42,1325.94 266.63,2046.7 294,2081.09 C310.22,2101.47 330.3232,2110.1442 355.6932,2114.4142" fill="none" id="UC_Sesion-to-UC_FiltrarMapa" style="stroke:#181818;stroke-width:1;"/><polygon fill="#181818" points="361.61,2115.41,353.3987,2109.9717,356.6793,2114.5801,352.0709,2117.8607,361.61,2115.41" style="stroke:#181818;stroke-width:1;"/></g><!--link UC_Sesion to UC_ExportarMapa--><g class="link" data-entity-1="UC_Sesion" data-entity-2="UC_ExportarMapa" data-source-line="103" data-uid="lnk76" id="link_UC_Sesion_UC_ExportarMapa"><path d="M246.46,1265.3 C260.27,1270.33 273.49,1278.1 282,1290.09 C305.26,1322.85 268.85,1981.76 294,2013.09 C311.55,2034.96 334.4803,2043.5045 361.6403,2047.0445" fill="none" id="UC_Sesion-to-UC_ExportarMapa" style="stroke:#181818;stroke-width:1;"/><polygon fill="#181818" points="367.59,2047.82,359.1825,2042.6903,362.6319,2047.1738,358.1485,2050.6232,367.59,2047.82" style="stroke:#181818;stroke-width:1;"/></g><!--link UC_GenerarMapa to UC_CrearHistoria--><g class="link" data-entity-1="UC_GenerarMapa" data-entity-2="UC_CrearHistoria" data-source-line="104" data-uid="lnk77" id="link_UC_GenerarMapa_UC_CrearHistoria"><path d="M480.82,1967.5 C510.93,1956.25 549.39,1936.58 569.67,1905.09 C660.92,1763.44 711.3873,476.5459 717.2773,317.9959" fill="none" id="UC_GenerarMapa-to-UC_CrearHistoria" style="stroke:#181818;stroke-width:1;"/><polygon fill="#181818" points="717.5,312,713.1686,320.8453,717.3144,316.9966,721.1631,321.1423,717.5,312" style="stroke:#181818;stroke-width:1;"/></g><!--link UC_Sesion to UC_GenerarNombre--><g class="link" data-entity-1="UC_Sesion" data-entity-2="UC_GenerarNombre" data-source-line="111" data-uid="lnk81" id="link_UC_Sesion_UC_GenerarNombre"><path d="M246.49,1265.29 C260.29,1270.32 273.51,1278.09 282,1290.09 C309.58,1329.04 264.56,2111.52 294,2149.09 C372.1,2248.77 447.59,2187.47 569.67,2221.09 C597.99,2228.89 623.481,2236.1967 649.961,2243.9367" fill="none" id="UC_Sesion-to-UC_GenerarNombre" style="stroke:#181818;stroke-width:1;"/><polygon fill="#181818" points="655.72,2245.62,648.2037,2239.2556,650.9208,2244.2172,645.9592,2246.9343,655.72,2245.62" style="stroke:#181818;stroke-width:1;"/></g><!--link UC_Sesion to UC_CrearDesdeNombre--><g class="link" data-entity-1="UC_Sesion" data-entity-2="UC_CrearDesdeNombre" data-source-line="112" data-uid="lnk82" id="link_UC_Sesion_UC_CrearDesdeNombre"><path d="M246.49,1265.28 C260.3,1270.31 273.51,1278.09 282,1290.09 C311.58,1331.91 264.51,2170.2 294,2212.09 C305.98,2229.1 318.5409,2238.4024 337.8709,2246.2524" fill="none" id="UC_Sesion-to-UC_CrearDesdeNombre" style="stroke:#181818;stroke-width:1;"/><polygon fill="#181818" points="343.43,2248.51,336.5964,2241.4176,338.7974,2246.6287,333.5863,2248.8297,343.43,2248.51" style="stroke:#181818;stroke-width:1;"/></g><!--link UC_CrearDesdeNombre to UC_GenerarNombre--><g class="link" data-entity-1="UC_CrearDesdeNombre" data-entity-2="UC_GenerarNombre" data-source-line="113" data-uid="lnk83" id="link_UC_CrearDesdeNombre_UC_GenerarNombre"><path d="M556.46,2264.67 C576.3,2264.6 590.74,2264.5417 610.13,2264.4717" fill="none" id="UC_CrearDesdeNombre-to-UC_GenerarNombre" style="stroke:#181818;stroke-width:1;"/><polygon fill="#181818" points="616.13,2264.45,607.1156,2260.4825,611.13,2264.4681,607.1445,2268.4825,616.13,2264.45" style="stroke:#181818;stroke-width:1;"/></g><!--link UC_Sesion to UC_PromptIdea--><g class="link" data-entity-1="UC_Sesion" data-entity-2="UC_PromptIdea" data-source-line="120" data-uid="lnk87" id="link_UC_Sesion_UC_PromptIdea"><path d="M246.5,1265.27 C260.31,1270.31 273.52,1278.08 282,1290.09 C314.6,1336.24 259.26,2262.53 294,2307.09 C294.36,2307.55 540.1275,2372.2631 655.5775,2402.6431" fill="none" id="UC_Sesion-to-UC_PromptIdea" style="stroke:#181818;stroke-width:1;"/><polygon fill="#181818" points="661.38,2404.17,653.6942,2398.0114,656.5446,2402.8976,651.6584,2405.748,661.38,2404.17" style="stroke:#181818;stroke-width:1;"/></g><!--link UC_Sesion to UC_GenerarIdea--><g class="link" data-entity-1="UC_Sesion" data-entity-2="UC_GenerarIdea" data-source-line="121" data-uid="lnk88" id="link_UC_Sesion_UC_GenerarIdea"><path d="M246.51,1265.27 C260.31,1270.3 273.52,1278.08 282,1290.09 C316.6,1339.11 259.05,2321.32 294,2370.09 C307.56,2389.01 323.1789,2398.9195 345.2189,2406.2795" fill="none" id="UC_Sesion-to-UC_GenerarIdea" style="stroke:#181818;stroke-width:1;"/><polygon fill="#181818" points="350.91,2408.18,343.6404,2401.5353,346.1674,2406.5963,341.1064,2409.1233,350.91,2408.18" style="stroke:#181818;stroke-width:1;"/></g><!--link UC_GenerarIdea to UC_PromptIdea--><g class="link" data-entity-1="UC_GenerarIdea" data-entity-2="UC_PromptIdea" data-source-line="122" data-uid="lnk89" id="link_UC_GenerarIdea_UC_PromptIdea"><path d="M538.42,2419.73 C569.17,2419.62 596.7,2419.5202 626.38,2419.4202" fill="none" id="UC_GenerarIdea-to-UC_PromptIdea" style="stroke:#181818;stroke-width:1;"/><polygon fill="#181818" points="632.38,2419.4,623.3666,2415.4303,627.38,2419.4168,623.3935,2423.4303,632.38,2419.4" style="stroke:#181818;stroke-width:1;"/></g><!--link UC_Sesion to UC_EnviarChat--><g class="link" data-entity-1="UC_Sesion" data-entity-2="UC_EnviarChat" data-source-line="129" data-uid="lnk93" id="link_UC_Sesion_UC_EnviarChat"><path d="M246.52,1265.26 C260.32,1270.3 273.53,1278.08 282,1290.09 C300.72,1316.63 274.02,2433.49 294,2459.09 C295.46,2460.96 547.0201,2525.9918 660.0601,2555.1418" fill="none" id="UC_Sesion-to-UC_EnviarChat" style="stroke:#181818;stroke-width:1;"/><polygon fill="#181818" points="665.87,2556.64,658.1539,2550.5194,661.0284,2555.3915,656.1563,2558.2659,665.87,2556.64" style="stroke:#181818;stroke-width:1;"/></g><!--link UC_Sesion to UC_RespuestaChat--><g class="link" data-entity-1="UC_Sesion" data-entity-2="UC_RespuestaChat" data-source-line="130" data-uid="lnk94" id="link_UC_Sesion_UC_RespuestaChat"><path d="M246.52,1265.26 C260.32,1270.3 273.53,1278.07 282,1290.09 C301.72,1318.06 274.17,2494.2 294,2522.09 C306.99,2540.36 321.5116,2550.0862 342.6116,2557.6462" fill="none" id="UC_Sesion-to-UC_RespuestaChat" style="stroke:#181818;stroke-width:1;"/><polygon fill="#181818" points="348.26,2559.67,341.1366,2552.8687,343.553,2557.9835,338.4382,2560.3999,348.26,2559.67" style="stroke:#181818;stroke-width:1;"/></g><!--link UC_RespuestaChat to UC_EnviarChat--><g class="link" data-entity-1="UC_RespuestaChat" data-entity-2="UC_EnviarChat" data-source-line="131" data-uid="lnk95" id="link_UC_RespuestaChat_UC_EnviarChat"><path d="M543.98,2571.96 C576.18,2571.61 604.9503,2571.3041 634.8903,2570.9841" fill="none" id="UC_RespuestaChat-to-UC_EnviarChat" style="stroke:#181818;stroke-width:1;"/><polygon fill="#181818" points="640.89,2570.92,631.8478,2567.0164,635.8903,2570.9734,631.9333,2575.016,640.89,2570.92" style="stroke:#181818;stroke-width:1;"/></g><!--SRC=[XLV1Zjis4BtxAmPxQNF8BnHGjEgkYgnisF9U2wxCUDd8aYlIYnH5_o1fYgPeqLw200620iafXnQzxWUrdn1I92MA7AgN1NRUUyEPDqD9hkaJ0QA5Zkrl1UnOHol1scR1dxBcI3foW2Efdf8ztOZlQWeA9is-fWvXHv-GKorA-amaDTit1ze8gEGVsYqMf19j1rj-8Xrh5ulFuB_Nl_m4oRRCYZ9FapI_VrKip15mbfo4rB6ALEp-OtC6toy0JfnMX4jmJVUCYuvqd9u1uR1DltP2BZDlMCL81vnodKUp7xTxrhYyZSQ1zVmTiKGLbnxyi31rmyE7N_Z7UP3ExGLDdhxhLt_0PRufb-iysOmDNyfyRSS8ztfDEohhlpMehQkFMebBptPC87mTHWKrEx06anW04rtJaS-jG0Q79fHZjclhmRJc0FPA376_de0nAQ2t-jsVa2Qh-nVbzl7IyJebn_iFubItkDcLXITkIn5JGSJjGA3ZgCBQ7MeCWgaItlPhF8Y01FCo72iVR8fDOZWdCeaPtAyqOCHgYKFualH3_F4zP9iqAzpRad7vM8dS5TfZazbfEZAvALS74R8TcaStuL1WvwNvSbZ1j0r3I-T6FgGuDUoETXpFi3LWTDgcniYie-YqmzYSlIxcQKEfCJs-fVe-_mwhRBrP5ibNcRCDAvMl8TzGV26E5fxin212rY9Gw3WkiSiHYWo2okny1rNyIWzwx55iymYobnc26WnSalrOHMn7HaPaJUO8GQ-nBGYxYJ4dHSyac7bsF7y1soA_LZlZx8jTGNnT_8lMHuUj3PV5v-imAh2h4aWCW8diWAqclYTM_R-FVlSAOdEUmVr2OxCBQeb3C-Dx-TU_Vx-4Chbm7_s2VNkYGdR-kLmG_W2TeRmDa_599Ze8XsTZ7lLBLglllF5cSJYs4w5Xg6AYZgkaKJDHqCtQU_7RFygBgsILG96irqcPNoz7Lwx8aK11keu8TjTwdbpGXgeU3f9agpOnfSFQfJLLN-yjzxhq-TapwORmSjjWJqOiSS-EDOw3aypJJ3DhzFPNkCYAR9sSBzTmda6nl7gqTbyWEirEpdL7eMWFDrtmAh4UDZqAfAP4dT1wVchnp3j8di3b8JhDP4VF5M3qSTCC0LypDmKImrFr5ltyPcfHVfubCOFo7Gq-lUGhl6CtJ3RQjOUZW1io_ZPRzI6bmWnbCWwDsLm2UU8vskiGFvoiCQyiwFoBg7N_xo6zJ4hiQgMtH4IlLjRSgOUpl2jS3NUiNWDAE_tbMlKkoVqwdYWNJkVZBra3zLgaSITpW4t5VY3Cy0a0]--></g></svg>